<svg width="328" height="400" viewBox="0 0 328 400" fill="none" xmlns="http://www.w3.org/2000/svg">
<g clip-path="url(#clip0_862_2212)">
<rect width="328" height="400" rx="24" fill="#242933"/>
<path d="M-353 8.77807C-353 -116.407 -69.0974 -221 56.1747 -221C181.447 -221 283 -119.518 283 5.66692C283 130.852 139.558 21.1696 43.1719 154.571C-53.2148 287.973 -353 133.963 -353 8.77807Z" fill="#2361FF"/>
<path d="M417.23 424.718C409.746 474.042 291.675 498.285 242.336 490.798C192.997 483.311 159.067 437.256 166.552 387.933C174.037 338.609 223.974 390.397 269.913 343.597C315.851 296.796 424.715 375.394 417.23 424.718Z" fill="#FF5F76"/>
<path d="M217.486 276.403C210.026 280.133 211.76 271.741 213.56 267.078C215.075 263.152 217.977 261.68 220.185 264.379C222.394 267.078 219.204 271.25 224.602 268.551C230.001 265.851 226.811 271.741 217.486 276.403Z" fill="#353C4A"/>
<path d="M217.486 258.735C210.026 262.465 211.76 254.073 213.56 249.41C215.075 245.484 217.977 244.012 220.185 246.711C222.394 249.41 219.204 253.582 224.602 250.883C230.001 248.183 226.811 254.073 217.486 258.735Z" fill="#353C4A"/>
<path d="M217.486 241.067C210.026 244.797 211.76 236.405 213.56 231.742C215.075 227.816 217.977 226.344 220.185 229.043C222.394 231.742 219.204 235.914 224.602 233.215C230.001 230.515 226.811 236.405 217.486 241.067Z" fill="#353C4A"/>
<path d="M217.486 223.399C210.026 227.129 211.76 218.736 213.56 214.074C215.075 210.148 217.977 208.676 220.185 211.375C222.394 214.074 219.204 218.246 224.602 215.546C230.001 212.847 226.811 218.736 217.486 223.399Z" fill="#353C4A"/>
<path d="M236.136 276.403C228.676 280.133 230.41 271.741 232.209 267.078C233.725 263.152 236.626 261.68 238.835 264.379C241.043 267.078 237.853 271.25 243.252 268.551C248.65 265.851 245.46 271.741 236.136 276.403Z" fill="#353C4A"/>
<path d="M236.136 258.735C228.676 262.465 230.41 254.073 232.209 249.41C233.725 245.484 236.626 244.012 238.835 246.711C241.043 249.41 237.853 253.582 243.252 250.883C248.65 248.183 245.46 254.073 236.136 258.735Z" fill="#353C4A"/>
<path d="M236.136 241.067C228.676 244.797 230.41 236.405 232.209 231.742C233.725 227.816 236.626 226.344 238.835 229.043C241.043 231.742 237.853 235.914 243.252 233.215C248.65 230.515 245.46 236.405 236.136 241.067Z" fill="#353C4A"/>
<path d="M236.136 223.399C228.676 227.129 230.41 218.736 232.209 214.074C233.725 210.148 236.626 208.676 238.835 211.375C241.043 214.074 237.853 218.246 243.252 215.546C248.65 212.847 245.46 218.736 236.136 223.399Z" fill="#353C4A"/>
<path d="M254.785 276.403C247.325 280.133 249.059 271.741 250.859 267.078C252.374 263.152 255.276 261.68 257.484 264.379C259.693 267.078 256.503 271.25 261.901 268.551C267.3 265.851 264.11 271.741 254.785 276.403Z" fill="#353C4A"/>
<path d="M254.785 258.735C247.325 262.465 249.059 254.073 250.859 249.41C252.374 245.484 255.276 244.012 257.484 246.711C259.693 249.41 256.503 253.582 261.901 250.883C267.3 248.183 264.11 254.073 254.785 258.735Z" fill="#353C4A"/>
<path d="M254.785 241.067C247.325 244.797 249.059 236.405 250.859 231.742C252.374 227.816 255.276 226.344 257.484 229.043C259.693 231.742 256.503 235.914 261.901 233.215C267.3 230.515 264.11 236.405 254.785 241.067Z" fill="#353C4A"/>
<path d="M254.785 223.399C247.325 227.129 249.059 218.736 250.859 214.074C252.374 210.148 255.276 208.676 257.484 211.375C259.693 214.074 256.503 218.246 261.901 215.546C267.3 212.847 264.11 218.736 254.785 223.399Z" fill="#353C4A"/>
<path d="M273.435 276.403C265.975 280.133 267.709 271.741 269.509 267.078C271.024 263.152 273.926 261.68 276.134 264.379C278.343 267.078 275.152 271.25 280.551 268.551C285.95 265.851 282.76 271.741 273.435 276.403Z" fill="#353C4A"/>
<path d="M273.435 258.735C265.975 262.465 267.709 254.073 269.509 249.41C271.024 245.484 273.926 244.012 276.134 246.711C278.343 249.41 275.152 253.582 280.551 250.883C285.95 248.183 282.76 254.073 273.435 258.735Z" fill="#353C4A"/>
<path d="M273.435 241.067C265.975 244.797 267.709 236.405 269.509 231.742C271.024 227.816 273.926 226.344 276.134 229.043C278.343 231.742 275.152 235.914 280.551 233.215C285.95 230.515 282.76 236.405 273.435 241.067Z" fill="#353C4A"/>
<path d="M273.435 223.399C265.975 227.129 267.709 218.736 269.509 214.074C271.024 210.148 273.926 208.676 276.134 211.375C278.343 214.074 275.152 218.246 280.551 215.546C285.95 212.847 282.76 218.736 273.435 223.399Z" fill="#353C4A"/>
<path d="M292.085 276.403C284.625 280.133 286.359 271.741 288.159 267.078C289.674 263.152 292.575 261.68 294.784 264.379C296.992 267.078 293.802 271.25 299.201 268.551C304.6 265.851 301.41 271.741 292.085 276.403Z" fill="#353C4A"/>
<path d="M292.085 258.735C284.625 262.465 286.359 254.073 288.159 249.41C289.674 245.484 292.575 244.012 294.784 246.711C296.992 249.41 293.802 253.582 299.201 250.883C304.6 248.183 301.41 254.073 292.085 258.735Z" fill="#353C4A"/>
<path d="M292.085 241.067C284.625 244.797 286.359 236.405 288.159 231.742C289.674 227.816 292.575 226.344 294.784 229.043C296.992 231.742 293.802 235.914 299.201 233.215C304.6 230.515 301.41 236.405 292.085 241.067Z" fill="#353C4A"/>
<path d="M292.085 223.399C284.625 227.129 286.359 218.736 288.159 214.074C289.674 210.148 292.575 208.676 294.784 211.375C296.992 214.074 293.802 218.246 299.201 215.546C304.6 212.847 301.41 218.736 292.085 223.399Z" fill="#353C4A"/>
<path d="M310.734 276.403C303.274 280.133 305.008 271.741 306.808 267.078C308.323 263.152 311.225 261.68 313.433 264.379C315.642 267.078 312.452 271.25 317.85 268.551C323.249 265.851 320.059 271.741 310.734 276.403Z" fill="#353C4A"/>
<path d="M310.734 258.735C303.274 262.465 305.008 254.073 306.808 249.41C308.323 245.484 311.225 244.012 313.433 246.711C315.642 249.41 312.452 253.582 317.85 250.883C323.249 248.183 320.059 254.073 310.734 258.735Z" fill="#353C4A"/>
<path d="M310.734 241.067C303.274 244.797 305.008 236.405 306.808 231.742C308.323 227.816 311.225 226.344 313.433 229.043C315.642 231.742 312.452 235.914 317.85 233.215C323.249 230.515 320.059 236.405 310.734 241.067Z" fill="#353C4A"/>
<path d="M310.734 223.399C303.274 227.129 305.008 218.736 306.808 214.074C308.323 210.148 311.225 208.676 313.433 211.375C315.642 214.074 312.452 218.246 317.85 215.546C323.249 212.847 320.059 218.736 310.734 223.399Z" fill="#353C4A"/>
<rect x="25" y="258" width="278" height="38" rx="7" fill="#2361FF"/>
<path d="M128.196 276.888C128.708 280.824 126.116 283.16 122.98 283.16C119.828 283.16 117.156 280.856 117.156 277.32C117.156 273.784 119.844 271.48 123.044 271.48C124.564 271.48 126.436 272.024 127.636 273.944L126.052 275.048C125.3 273.992 124.228 273.56 123.076 273.56C121.044 273.56 119.396 274.984 119.396 277.32C119.396 279.64 121.012 281.144 123.076 281.144C124.468 281.144 125.732 280.488 126.068 278.728H123.348V276.888H128.196ZM133.85 274.52C135.962 274.52 138.362 276.008 137.898 279.672H131.674C131.978 280.808 132.97 281.4 134.218 281.4C135.034 281.4 135.754 281.176 136.362 280.648L137.338 281.688C136.65 282.552 135.45 283.16 133.978 283.16C131.69 283.16 129.642 281.608 129.642 278.84C129.642 276.04 131.722 274.52 133.85 274.52ZM133.866 276.328C132.874 276.328 131.914 276.904 131.642 278.104H135.994C135.866 276.92 134.874 276.328 133.866 276.328ZM143.156 281.192C143.348 281.192 143.636 281.16 143.94 281.064V282.712C143.62 283 143.012 283.096 142.484 283.096C141.076 283.096 140.052 282.408 140.052 280.696V276.392H138.868V274.68H140.052V272.552H142.212V274.68H143.924V276.392H142.212V280.344C142.212 280.776 142.452 281.192 143.156 281.192ZM149.174 283V271.64H151.366V283H149.174ZM157.995 274.52C159.707 274.52 161.147 275.576 161.147 278.104V283H159.003V278.456C159.003 277.24 158.347 276.44 157.227 276.44C156.123 276.44 155.451 277.24 155.451 278.456V283H153.307V274.68H155.451V275.816C155.915 275.08 156.747 274.52 157.995 274.52ZM173.976 271.64V273.656H171.24V283H169.048V273.656H166.312V271.64H173.976ZM177.907 283.16C175.731 283.16 173.523 281.656 173.523 278.84C173.523 276.024 175.731 274.52 177.907 274.52C180.067 274.52 182.291 276.024 182.291 278.84C182.291 281.656 180.067 283.16 177.907 283.16ZM177.907 281.224C179.107 281.224 180.163 280.328 180.163 278.84C180.163 277.352 179.107 276.456 177.907 276.456C176.707 276.456 175.635 277.352 175.635 278.84C175.635 280.328 176.707 281.224 177.907 281.224ZM189.533 274.68H191.677V283H189.533V281.864C189.069 282.6 188.221 283.16 186.973 283.16C185.277 283.16 183.837 282.104 183.837 279.576V274.68H185.981V279.224C185.981 280.44 186.637 281.24 187.757 281.24C188.845 281.24 189.533 280.44 189.533 279.224V274.68ZM197.609 283.16C195.417 283.16 193.225 281.656 193.225 278.84C193.225 276.024 195.417 274.52 197.609 274.52C199.081 274.52 200.393 275.208 201.193 276.568L199.625 277.576C199.193 276.92 198.489 276.456 197.625 276.456C196.425 276.456 195.337 277.352 195.337 278.84C195.337 280.328 196.425 281.224 197.625 281.224C198.489 281.224 199.193 280.76 199.625 280.104L201.193 281.112C200.393 282.456 199.081 283.16 197.609 283.16ZM207.43 274.52C209.142 274.52 210.582 275.576 210.582 278.104V283H208.438V278.456C208.438 277.24 207.782 276.44 206.662 276.44C205.558 276.44 204.886 277.24 204.886 278.456V283H202.742V271.64H204.886V275.816C205.35 275.08 206.182 274.52 207.43 274.52Z" fill="white"/>
<rect x="25" y="258" width="278" height="38" rx="7" stroke="url(#paint0_radial_862_2212)" stroke-width="2"/>
<path d="M97.277 117.776C98.301 125.648 93.117 130.32 86.845 130.32C80.541 130.32 75.197 125.712 75.197 118.64C75.197 111.568 80.573 106.96 86.973 106.96C90.013 106.96 93.757 108.048 96.157 111.888L92.989 114.096C91.485 111.984 89.341 111.12 87.037 111.12C82.973 111.12 79.677 113.968 79.677 118.64C79.677 123.28 82.909 126.288 87.037 126.288C89.821 126.288 92.349 124.976 93.021 121.456H87.581V117.776H97.277ZM107.626 113.04C111.85 113.04 116.65 116.016 115.722 123.344H103.274C103.882 125.616 105.866 126.8 108.362 126.8C109.994 126.8 111.434 126.352 112.65 125.296L114.602 127.376C113.226 129.104 110.826 130.32 107.882 130.32C103.306 130.32 99.2095 127.216 99.2095 121.68C99.2095 116.08 103.37 113.04 107.626 113.04ZM107.658 116.656C105.674 116.656 103.754 117.808 103.21 120.208H111.914C111.658 117.84 109.674 116.656 107.658 116.656ZM125.278 126.384C125.662 126.384 126.238 126.32 126.846 126.128V129.424C126.206 130 124.99 130.192 123.934 130.192C121.118 130.192 119.07 128.816 119.07 125.392V116.784H116.702V113.36H119.07V109.104H123.39V113.36H126.814V116.784H123.39V124.688C123.39 125.552 123.87 126.384 125.278 126.384ZM143.169 126.384C143.553 126.384 144.129 126.32 144.737 126.128V129.424C144.097 130 142.881 130.192 141.825 130.192C139.009 130.192 136.961 128.816 136.961 125.392V116.784H134.593V113.36H136.961V109.104H141.281V113.36H144.705V116.784H141.281V124.688C141.281 125.552 141.761 126.384 143.169 126.384ZM154.823 130.32C150.471 130.32 146.055 127.312 146.055 121.68C146.055 116.048 150.471 113.04 154.823 113.04C159.143 113.04 163.591 116.048 163.591 121.68C163.591 127.312 159.143 130.32 154.823 130.32ZM154.823 126.448C157.223 126.448 159.335 124.656 159.335 121.68C159.335 118.704 157.223 116.912 154.823 116.912C152.423 116.912 150.279 118.704 150.279 121.68C150.279 124.656 152.423 126.448 154.823 126.448ZM183.58 130L178.364 123.6L176.284 125.904V130H171.996V107.28H176.284V120.432L182.524 113.36H187.644L181.02 120.688L188.38 130H183.58ZM199.552 113.04C202.976 113.04 205.856 115.152 205.856 120.208V130H201.568V120.912C201.568 118.48 200.256 116.88 198.016 116.88C195.808 116.88 194.464 118.48 194.464 120.912V130H190.176V113.36H194.464V115.632C195.392 114.16 197.056 113.04 199.552 113.04ZM216.761 130.32C212.409 130.32 207.993 127.312 207.993 121.68C207.993 116.048 212.409 113.04 216.761 113.04C221.081 113.04 225.529 116.048 225.529 121.68C225.529 127.312 221.081 130.32 216.761 130.32ZM216.761 126.448C219.161 126.448 221.273 124.656 221.273 121.68C221.273 118.704 219.161 116.912 216.761 116.912C214.361 116.912 212.217 118.704 212.217 121.68C212.217 124.656 214.361 126.448 216.761 126.448ZM249.668 113.36H253.924L247.812 130H243.876L239.748 118.736L235.62 130H231.684L225.572 113.36H229.828L233.7 124.88L237.764 113.36H241.7L245.764 124.88L249.668 113.36ZM75.3704 145.04C78.8904 145.04 81.4504 147.248 81.4504 152.336V162H77.1304V152.528C77.1304 150.16 75.9144 148.88 74.0584 148.88C72.1704 148.88 70.8264 150.16 70.8264 152.528V162H66.5384V152.528C66.5384 150.16 65.2904 148.88 63.4664 148.88C61.5784 148.88 60.2344 150.16 60.2344 152.528V162H55.9464V145.36H60.2344V147.504C61.1304 146.096 62.6664 145.04 65.0024 145.04C67.0504 145.04 68.8424 145.904 69.8664 147.824C70.8264 146.288 72.6504 145.04 75.3704 145.04ZM92.3444 162.32C87.9924 162.32 83.5764 159.312 83.5764 153.68C83.5764 148.048 87.9924 145.04 92.3444 145.04C96.6644 145.04 101.112 148.048 101.112 153.68C101.112 159.312 96.6644 162.32 92.3444 162.32ZM92.3444 158.448C94.7444 158.448 96.8564 156.656 96.8564 153.68C96.8564 150.704 94.7444 148.912 92.3444 148.912C89.9444 148.912 87.8004 150.704 87.8004 153.68C87.8004 156.656 89.9444 158.448 92.3444 158.448ZM112.748 145.04C113.132 145.04 113.484 145.072 113.868 145.168V149.264C113.484 149.2 113.164 149.168 112.78 149.168C109.548 149.168 107.532 151.408 107.532 154.736V162H103.244V145.36H107.532V149.68C108.108 147.12 109.74 145.04 112.748 145.04ZM123.134 145.04C127.358 145.04 132.158 148.016 131.23 155.344H118.782C119.39 157.616 121.374 158.8 123.87 158.8C125.502 158.8 126.942 158.352 128.158 157.296L130.11 159.376C128.734 161.104 126.334 162.32 123.39 162.32C118.814 162.32 114.718 159.216 114.718 153.68C114.718 148.08 118.878 145.04 123.134 145.04ZM123.166 148.656C121.182 148.656 119.262 149.808 118.718 152.208H127.422C127.166 149.84 125.182 148.656 123.166 148.656ZM146.953 162.32C143.081 162.32 138.953 159.44 138.953 153.68C138.953 147.92 143.081 145.04 146.953 145.04C149.929 145.04 151.849 146.672 152.265 147.6H152.361V145.36H156.649V162H152.361V159.76H152.265C151.849 160.688 149.929 162.32 146.953 162.32ZM147.817 158.48C150.217 158.48 152.457 156.816 152.457 153.68C152.457 150.544 150.217 148.88 147.817 148.88C145.417 148.88 143.177 150.576 143.177 153.68C143.177 156.784 145.417 158.48 147.817 158.48ZM169.285 145.04C173.157 145.04 177.285 147.92 177.285 153.68C177.285 159.44 173.157 162.32 169.285 162.32C166.309 162.32 164.389 160.688 163.973 159.76H163.877V162H159.589V139.28H163.877V147.6H163.973C164.389 146.672 166.309 145.04 169.285 145.04ZM168.421 158.48C170.789 158.48 173.029 156.784 173.029 153.68C173.029 150.576 170.789 148.88 168.421 148.88C165.989 148.88 163.781 150.544 163.781 153.68C163.781 156.816 165.989 158.48 168.421 158.48ZM187.393 162.32C183.041 162.32 178.625 159.312 178.625 153.68C178.625 148.048 183.041 145.04 187.393 145.04C191.713 145.04 196.161 148.048 196.161 153.68C196.161 159.312 191.713 162.32 187.393 162.32ZM187.393 158.448C189.793 158.448 191.905 156.656 191.905 153.68C191.905 150.704 189.793 148.912 187.393 148.912C184.993 148.912 182.849 150.704 182.849 153.68C182.849 156.656 184.993 158.448 187.393 158.448ZM209.685 145.36H213.973V162H209.685V159.728C208.757 161.2 207.061 162.32 204.565 162.32C201.173 162.32 198.293 160.208 198.293 155.152V145.36H202.581V154.448C202.581 156.88 203.893 158.48 206.133 158.48C208.309 158.48 209.685 156.88 209.685 154.448V145.36ZM224.686 158.384C225.07 158.384 225.646 158.32 226.254 158.128V161.424C225.614 162 224.398 162.192 223.342 162.192C220.526 162.192 218.478 160.816 218.478 157.392V148.784H216.11V145.36H218.478V141.104H222.798V145.36H226.222V148.784H222.798V156.688C222.798 157.552 223.278 158.384 224.686 158.384ZM246.193 145.36H250.481V162H246.193V159.728C245.265 161.2 243.569 162.32 241.073 162.32C237.681 162.32 234.801 160.208 234.801 155.152V145.36H239.089V154.448C239.089 156.88 240.401 158.48 242.641 158.48C244.817 158.48 246.193 156.88 246.193 154.448V145.36ZM258.699 162.32C255.403 162.32 252.971 160.72 252.459 157.648L255.883 156.72C256.203 157.808 257.003 158.928 258.635 158.928C259.723 158.928 260.779 158.384 260.779 157.2C260.779 156.4 260.267 155.824 258.955 155.344L256.907 154.576C254.155 153.584 253.003 151.824 253.003 149.808C253.003 146.832 255.627 145.04 258.763 145.04C261.771 145.04 263.979 146.736 264.523 149.296L261.163 150.16C260.715 148.816 259.851 148.4 258.955 148.4C257.835 148.4 257.163 149.04 257.163 149.84C257.163 150.544 257.579 151.152 258.891 151.6L260.747 152.304C262.795 153.04 265.035 154.256 265.035 157.2C265.035 160.528 262.187 162.32 258.699 162.32ZM267.449 154.832V139.28H271.865V154.832H267.449ZM269.593 162.32C268.281 162.32 267.161 161.328 267.161 159.856C267.161 158.384 268.281 157.392 269.593 157.392C270.937 157.392 272.057 158.384 272.057 159.856C272.057 161.328 270.937 162.32 269.593 162.32Z" fill="white"/>
<path d="M85.8087 187.048C86.2087 190.888 83.6487 193.16 80.5767 193.16C77.4407 193.16 74.7847 190.824 74.7847 187.32C74.7847 183.816 77.4407 181.48 80.6247 181.48C82.0807 181.48 83.9367 181.976 85.1367 183.832L83.8247 184.76C82.9927 183.608 81.7927 183.208 80.6567 183.208C78.4167 183.208 76.6407 184.792 76.6407 187.32C76.6407 189.832 78.4167 191.48 80.6567 191.48C82.2727 191.48 83.7287 190.632 84.0487 188.568H81.0887V187.048H85.8087ZM91.0451 184.52C93.1571 184.52 95.4611 186.024 95.0611 189.512H88.5331C88.8051 190.952 89.9411 191.688 91.3651 191.688C92.2611 191.688 93.0611 191.4 93.6691 190.824L94.5011 191.688C93.7811 192.584 92.5811 193.16 91.1731 193.16C88.9171 193.16 86.8691 191.608 86.8691 188.84C86.8691 186.04 88.9331 184.52 91.0451 184.52ZM91.0611 186.024C89.8931 186.024 88.7731 186.728 88.5171 188.2H93.4931C93.3971 186.76 92.2451 186.024 91.0611 186.024ZM100.286 186.104H98.6058V190.664C98.6058 191.144 98.8618 191.512 99.5178 191.512C99.7098 191.512 99.9818 191.48 100.286 191.368V192.76C99.9818 193.016 99.4378 193.096 98.9898 193.096C97.7258 193.096 96.8298 192.472 96.8298 190.984V186.104H95.6778V184.68H96.8298V182.552H98.6058V184.68H100.286V186.104ZM107.302 193.16C105.702 193.16 104.534 192.344 104.278 190.872L105.718 190.472C105.894 191.176 106.422 191.736 107.286 191.736C107.942 191.736 108.582 191.4 108.582 190.664C108.582 190.136 108.23 189.816 107.43 189.496L106.534 189.16C105.158 188.632 104.582 187.784 104.582 186.808C104.582 185.4 105.814 184.52 107.318 184.52C108.742 184.52 109.782 185.304 110.07 186.52L108.678 186.888C108.438 186.216 107.974 185.928 107.398 185.928C106.758 185.928 106.31 186.28 106.31 186.824C106.31 187.256 106.582 187.624 107.334 187.896L108.15 188.216C109.302 188.648 110.342 189.24 110.342 190.664C110.342 192.328 108.934 193.16 107.302 193.16ZM115.587 186.104H113.907V190.664C113.907 191.144 114.163 191.512 114.819 191.512C115.011 191.512 115.283 191.48 115.587 191.368V192.76C115.283 193.016 114.739 193.096 114.291 193.096C113.027 193.096 112.131 192.472 112.131 190.984V186.104H110.979V184.68H112.131V182.552H113.907V184.68H115.587V186.104ZM120.414 193.16C118.446 193.16 116.382 191.704 116.382 188.84C116.382 185.976 118.446 184.52 120.414 184.52C121.934 184.52 122.99 185.352 123.294 186.008H123.342V184.68H125.102V193H123.342V191.672H123.294C122.99 192.328 121.934 193.16 120.414 193.16ZM120.75 191.56C122.094 191.56 123.39 190.632 123.39 188.84C123.39 187.048 122.094 186.12 120.75 186.12C119.422 186.12 118.126 187.048 118.126 188.84C118.126 190.632 119.422 191.56 120.75 191.56ZM131.1 184.52C131.292 184.52 131.452 184.536 131.628 184.584V186.264C131.452 186.232 131.308 186.216 131.116 186.216C129.532 186.216 128.46 187.368 128.46 189.112V193H126.7V184.68H128.46V186.824C128.748 185.576 129.58 184.52 131.1 184.52ZM137.013 186.104H135.333V190.664C135.333 191.144 135.589 191.512 136.245 191.512C136.437 191.512 136.709 191.48 137.013 191.368V192.76C136.709 193.016 136.165 193.096 135.717 193.096C134.453 193.096 133.557 192.472 133.557 190.984V186.104H132.405V184.68H133.557V182.552H135.333V184.68H137.013V186.104ZM141.984 184.52C144.096 184.52 146.4 186.024 146 189.512H139.472C139.744 190.952 140.88 191.688 142.304 191.688C143.2 191.688 144 191.4 144.608 190.824L145.44 191.688C144.72 192.584 143.52 193.16 142.112 193.16C139.856 193.16 137.808 191.608 137.808 188.84C137.808 186.04 139.872 184.52 141.984 184.52ZM142 186.024C140.832 186.024 139.712 186.728 139.456 188.2H144.432C144.336 186.76 143.184 186.024 142 186.024ZM153.795 181.64H155.571V193H153.811V191.672H153.763C153.459 192.328 152.403 193.16 150.883 193.16C148.915 193.16 146.851 191.704 146.851 188.84C146.851 185.976 148.915 184.52 150.883 184.52C152.403 184.52 153.459 185.352 153.763 186.008H153.795V181.64ZM151.219 191.56C152.563 191.56 153.859 190.632 153.859 188.84C153.859 187.048 152.563 186.12 151.219 186.12C149.891 186.12 148.595 187.048 148.595 188.84C148.595 190.632 149.891 191.56 151.219 191.56ZM172.112 184.68H173.888L170.8 193H169.168L166.848 186.84L164.528 193H162.896L159.808 184.68H161.568L163.744 190.856L166.032 184.68H167.664L169.952 190.856L172.112 184.68ZM174.927 183.224V181.64H176.687V183.224H174.927ZM174.927 193V184.68H176.687V193H174.927ZM182.491 186.104H180.811V190.664C180.811 191.144 181.067 191.512 181.723 191.512C181.915 191.512 182.187 191.48 182.491 191.368V192.76C182.187 193.016 181.643 193.096 181.195 193.096C179.931 193.096 179.035 192.472 179.035 190.984V186.104H177.883V184.68H179.035V182.552H180.811V184.68H182.491V186.104ZM188.195 184.52C189.907 184.52 191.379 185.592 191.379 188.104V193H189.603V188.392C189.603 186.936 188.803 186.12 187.571 186.12C186.371 186.12 185.523 186.936 185.523 188.392V193H183.763V181.64H185.523V185.928C185.971 185.16 186.851 184.52 188.195 184.52ZM201.842 193.16C198.658 193.16 196.018 190.824 196.018 187.32C196.018 183.816 198.658 181.48 201.842 181.48C203.314 181.48 205.154 181.976 206.354 183.832L205.042 184.76C204.21 183.608 202.994 183.208 201.89 183.208C199.666 183.208 197.874 184.824 197.874 187.32C197.874 189.832 199.682 191.432 201.906 191.432C203.026 191.432 204.21 191.032 205.042 189.88L206.354 190.808C205.154 192.664 203.314 193.16 201.842 193.16ZM211.267 193.16C209.107 193.16 206.915 191.64 206.915 188.84C206.915 186.04 209.107 184.52 211.267 184.52C213.427 184.52 215.619 186.04 215.619 188.84C215.619 191.64 213.427 193.16 211.267 193.16ZM211.267 191.544C212.627 191.544 213.859 190.552 213.859 188.84C213.859 187.128 212.627 186.136 211.267 186.136C209.907 186.136 208.659 187.128 208.659 188.84C208.659 190.552 209.907 191.544 211.267 191.544ZM223.355 181.64H225.131V193H223.371V191.672H223.323C223.019 192.328 221.963 193.16 220.443 193.16C218.475 193.16 216.411 191.704 216.411 188.84C216.411 185.976 218.475 184.52 220.443 184.52C221.963 184.52 223.019 185.352 223.323 186.008H223.355V181.64ZM220.779 191.56C222.123 191.56 223.419 190.632 223.419 188.84C223.419 187.048 222.123 186.12 220.779 186.12C219.451 186.12 218.155 187.048 218.155 188.84C218.155 190.632 219.451 191.56 220.779 191.56ZM230.505 184.52C232.617 184.52 234.921 186.024 234.521 189.512H227.993C228.265 190.952 229.401 191.688 230.825 191.688C231.721 191.688 232.521 191.4 233.129 190.824L233.961 191.688C233.241 192.584 232.041 193.16 230.633 193.16C228.377 193.16 226.329 191.608 226.329 188.84C226.329 186.04 228.393 184.52 230.505 184.52ZM230.521 186.024C229.353 186.024 228.233 186.728 227.977 188.2H232.953C232.857 186.76 231.705 186.024 230.521 186.024ZM239.948 193.16C237.612 193.16 235.772 191.64 235.772 188.84V181.64H237.58V188.84C237.58 190.744 238.732 191.448 239.948 191.448C241.18 191.448 242.332 190.744 242.332 188.84V181.64H244.14V188.84C244.14 191.64 242.3 193.16 239.948 193.16ZM250.425 184.52C252.393 184.52 254.457 185.976 254.457 188.84C254.457 191.704 252.393 193.16 250.425 193.16C248.905 193.16 247.849 192.328 247.545 191.672H247.497V196.04H245.737V184.68H247.497V186.008H247.545C247.849 185.352 248.905 184.52 250.425 184.52ZM250.089 191.56C251.417 191.56 252.713 190.632 252.713 188.84C252.713 187.048 251.417 186.12 250.089 186.12C248.745 186.12 247.449 187.048 247.449 188.84C247.449 190.632 248.745 191.56 250.089 191.56Z" fill="white"/>
</g>
<defs>
<radialGradient id="paint0_radial_862_2212" cx="0" cy="0" r="1" gradientUnits="userSpaceOnUse" gradientTransform="translate(164 257) rotate(90) scale(20 140)">
<stop stop-color="#B3C8FF"/>
<stop offset="1" stop-color="#6691FF" stop-opacity="0"/>
</radialGradient>
<clipPath id="clip0_862_2212">
<rect width="328" height="400" rx="24" fill="white"/>
</clipPath>
</defs>
</svg>
