<svg width="328" height="432" viewBox="0 0 328 432" fill="none" xmlns="http://www.w3.org/2000/svg">
<g clip-path="url(#clip0_862_2300)">
<rect width="328" height="432" rx="24" fill="#FF5F76"/>
<path d="M22.9924 268.324C17.5637 271.038 18.8256 264.931 20.1352 261.538C21.238 258.68 23.3495 257.609 24.9567 259.573C26.5639 261.538 24.2424 264.573 28.1711 262.609C32.0998 260.645 29.7784 264.931 22.9924 268.324Z" fill="#C94E5F"/>
<path d="M22.9924 255.466C17.5637 258.18 18.8256 252.073 20.1352 248.68C21.238 245.823 23.3495 244.751 24.9567 246.716C26.5639 248.68 24.2424 251.716 28.1711 249.751C32.0998 247.787 29.7784 252.073 22.9924 255.466Z" fill="#C94E5F"/>
<path d="M22.9924 242.608C17.5637 245.323 18.8256 239.215 20.1352 235.823C21.238 232.965 23.3495 231.894 24.9567 233.858C26.5639 235.823 24.2424 238.858 28.1711 236.894C32.0998 234.93 29.7784 239.215 22.9924 242.608Z" fill="#C94E5F"/>
<path d="M22.9924 229.751C17.5637 232.465 18.8256 226.358 20.1352 222.965C21.238 220.108 23.3495 219.036 24.9567 221C26.5639 222.965 24.2424 226.001 28.1711 224.036C32.0998 222.072 29.7784 226.358 22.9924 229.751Z" fill="#C94E5F"/>
<path d="M36.5642 268.324C31.1354 271.038 32.3974 264.931 33.707 261.538C34.8098 258.68 36.9213 257.609 38.5285 259.573C40.1357 261.538 37.8142 264.573 41.7429 262.609C45.6716 260.645 43.3502 264.931 36.5642 268.324Z" fill="#C94E5F"/>
<path d="M36.5642 255.466C31.1354 258.18 32.3974 252.073 33.707 248.68C34.8098 245.823 36.9213 244.751 38.5285 246.716C40.1357 248.68 37.8142 251.716 41.7429 249.751C45.6716 247.787 43.3502 252.073 36.5642 255.466Z" fill="#C94E5F"/>
<path d="M36.5642 242.608C31.1354 245.323 32.3974 239.215 33.707 235.823C34.8098 232.965 36.9213 231.894 38.5285 233.858C40.1357 235.823 37.8142 238.858 41.7429 236.894C45.6716 234.93 43.3502 239.215 36.5642 242.608Z" fill="#C94E5F"/>
<path d="M36.5642 229.751C31.1354 232.465 32.3974 226.358 33.707 222.965C34.8098 220.108 36.9213 219.036 38.5285 221C40.1357 222.965 37.8142 226.001 41.7429 224.036C45.6716 222.072 43.3502 226.358 36.5642 229.751Z" fill="#C94E5F"/>
<path d="M50.136 268.324C44.7072 271.038 45.9692 264.931 47.2787 261.538C48.3815 258.68 50.4931 257.609 52.1003 259.573C53.7075 261.538 51.386 264.573 55.3147 262.609C59.2434 260.645 56.9219 264.931 50.136 268.324Z" fill="#C94E5F"/>
<path d="M50.136 255.466C44.7072 258.18 45.9692 252.073 47.2787 248.68C48.3815 245.823 50.4931 244.751 52.1003 246.716C53.7075 248.68 51.386 251.716 55.3147 249.751C59.2434 247.787 56.9219 252.073 50.136 255.466Z" fill="#C94E5F"/>
<path d="M50.136 242.608C44.7072 245.323 45.9692 239.215 47.2787 235.823C48.3815 232.965 50.4931 231.894 52.1003 233.858C53.7075 235.823 51.386 238.858 55.3147 236.894C59.2434 234.93 56.9219 239.215 50.136 242.608Z" fill="#C94E5F"/>
<path d="M50.136 229.751C44.7072 232.465 45.9692 226.358 47.2787 222.965C48.3815 220.108 50.4931 219.036 52.1003 221C53.7075 222.965 51.386 226.001 55.3147 224.036C59.2434 222.072 56.9219 226.358 50.136 229.751Z" fill="#C94E5F"/>
<path d="M63.7082 268.324C58.2795 271.038 59.5414 264.931 60.851 261.538C61.9538 258.68 64.0653 257.609 65.6725 259.573C67.2797 261.538 64.9582 264.573 68.8869 262.609C72.8157 260.645 70.4942 264.931 63.7082 268.324Z" fill="#C94E5F"/>
<path d="M63.7082 255.466C58.2795 258.18 59.5414 252.073 60.851 248.68C61.9538 245.823 64.0653 244.751 65.6725 246.716C67.2797 248.68 64.9582 251.716 68.8869 249.751C72.8157 247.787 70.4942 252.073 63.7082 255.466Z" fill="#C94E5F"/>
<path d="M63.7082 242.608C58.2795 245.323 59.5414 239.215 60.851 235.823C61.9538 232.965 64.0653 231.894 65.6725 233.858C67.2797 235.823 64.9582 238.858 68.8869 236.894C72.8157 234.93 70.4942 239.215 63.7082 242.608Z" fill="#C94E5F"/>
<path d="M63.7082 229.751C58.2795 232.465 59.5414 226.358 60.851 222.965C61.9538 220.108 64.0653 219.036 65.6725 221C67.2797 222.965 64.9582 226.001 68.8869 224.036C72.8157 222.072 70.4942 226.358 63.7082 229.751Z" fill="#C94E5F"/>
<path d="M77.28 268.324C71.8513 271.038 73.1132 264.931 74.4228 261.538C75.5256 258.68 77.6371 257.609 79.2443 259.573C80.8515 261.538 78.53 264.573 82.4587 262.609C86.3874 260.645 84.066 264.931 77.28 268.324Z" fill="#C94E5F"/>
<path d="M77.28 255.466C71.8513 258.18 73.1132 252.073 74.4228 248.68C75.5256 245.823 77.6371 244.751 79.2443 246.716C80.8515 248.68 78.53 251.716 82.4587 249.751C86.3874 247.787 84.066 252.073 77.28 255.466Z" fill="#C94E5F"/>
<path d="M77.28 242.608C71.8513 245.323 73.1132 239.215 74.4228 235.823C75.5256 232.965 77.6371 231.894 79.2443 233.858C80.8515 235.823 78.53 238.858 82.4587 236.894C86.3874 234.93 84.066 239.215 77.28 242.608Z" fill="#C94E5F"/>
<path d="M77.28 229.751C71.8513 232.465 73.1132 226.358 74.4228 222.965C75.5256 220.108 77.6371 219.036 79.2443 221C80.8515 222.965 78.53 226.001 82.4587 224.036C86.3874 222.072 84.066 226.358 77.28 229.751Z" fill="#C94E5F"/>
<path d="M90.8518 268.324C85.423 271.038 86.685 264.931 87.9946 261.538C89.0974 258.68 91.2089 257.609 92.8161 259.573C94.4233 261.538 92.1018 264.573 96.0305 262.609C99.9592 260.645 97.6378 264.931 90.8518 268.324Z" fill="#C94E5F"/>
<path d="M90.8518 255.466C85.423 258.18 86.685 252.073 87.9946 248.68C89.0974 245.823 91.2089 244.751 92.8161 246.716C94.4233 248.68 92.1018 251.716 96.0305 249.751C99.9592 247.787 97.6378 252.073 90.8518 255.466Z" fill="#C94E5F"/>
<path d="M90.8518 242.608C85.423 245.323 86.685 239.215 87.9946 235.823C89.0974 232.965 91.2089 231.894 92.8161 233.858C94.4233 235.823 92.1018 238.858 96.0305 236.894C99.9592 234.93 97.6378 239.215 90.8518 242.608Z" fill="#C94E5F"/>
<path d="M90.8518 229.751C85.423 232.465 86.685 226.358 87.9946 222.965C89.0974 220.108 91.2089 219.036 92.8161 221C94.4233 222.965 92.1018 226.001 96.0305 224.036C99.9592 222.072 97.6378 226.358 90.8518 229.751Z" fill="#C94E5F"/>
<path d="M394 411.02C394 492.73 209.195 561 127.65 561C46.1053 561 -20 494.761 -20 413.05C-20 331.34 28.4452 375.918 109.99 375.918C303.383 286.278 394 329.309 394 411.02Z" fill="#242933"/>
<path d="M32.2 58.2H42.76V64H25.88V35.6H32.2V58.2ZM54.3378 42.8C59.6178 42.8 65.8178 46.48 64.4978 56H49.6978C50.5378 58.24 52.6178 59.36 55.3778 59.36C57.2178 59.36 58.8578 58.92 60.3778 57.76L63.1778 60.68C61.4578 62.84 58.4978 64.4 54.6978 64.4C48.9378 64.4 43.7378 60.48 43.7378 53.64C43.7378 46.6 48.9778 42.8 54.3378 42.8ZM54.4178 48C52.3378 48 50.2578 49.08 49.5778 51.56H59.0578C58.6178 49.16 56.4978 48 54.4178 48ZM77.2463 58.76C77.7263 58.76 78.4463 58.68 79.2063 58.44V63.16C78.4063 63.96 76.6463 64.24 75.2063 64.24C71.3663 64.24 68.5663 62.36 68.5663 57.6V48.12H65.4863V43.2H68.5663V37.88H74.7663V43.2H79.1263V48.12H74.7663V56.6C74.7663 57.64 75.3663 58.76 77.2463 58.76ZM80.6322 46.64L84.5122 35.6H89.8322L85.9122 46.64H80.6322ZM95.7675 64.4C91.5675 64.4 88.4075 62.44 87.7675 58.48L92.6875 57.16C93.0075 58.16 93.7275 59.56 95.6875 59.56C96.8075 59.56 97.8475 59 97.8475 57.84C97.8475 57.16 97.4475 56.52 96.0875 56.08L93.2875 55.04C89.8475 53.8 88.3675 51.56 88.3675 48.96C88.3675 45.08 91.8475 42.8 95.9275 42.8C99.8475 42.8 102.688 45 103.408 48.36L98.5675 49.56C98.0475 47.96 97.0075 47.6 96.1675 47.6C94.9675 47.6 94.3675 48.32 94.3675 49.04C94.3675 49.72 94.7675 50.36 96.1675 50.8L98.7675 51.76C101.008 52.52 103.968 54.08 103.968 57.84C103.968 62.04 100.408 64.4 95.7675 64.4ZM129.227 43.2H135.427V62.24C135.427 70.48 128.947 72.32 124.307 72.32C122.067 72.32 119.587 71.96 118.267 71.08V66.12C119.227 66.76 121.307 67.16 123.147 67.16C127.067 67.16 129.227 65.32 129.227 62.76V61.64H128.987C128.667 62.4 126.587 64.4 122.987 64.4C118.267 64.4 113.027 60.84 113.027 53.6C113.027 46.36 118.267 42.8 122.987 42.8C126.587 42.8 128.667 44.8 128.987 45.56H129.227V43.2ZM124.267 58.88C126.987 58.88 129.387 57 129.387 53.6C129.387 50.2 126.987 48.32 124.267 48.32C121.587 48.32 119.147 50.24 119.147 53.6C119.147 56.96 121.587 58.88 124.267 58.88ZM148.383 42.8C153.663 42.8 159.863 46.48 158.543 56H143.743C144.583 58.24 146.663 59.36 149.423 59.36C151.263 59.36 152.903 58.92 154.423 57.76L157.223 60.68C155.503 62.84 152.543 64.4 148.743 64.4C142.983 64.4 137.783 60.48 137.783 53.64C137.783 46.6 143.023 42.8 148.383 42.8ZM148.463 48C146.383 48 144.303 49.08 143.623 51.56H153.103C152.663 49.16 150.543 48 148.463 48ZM171.292 58.76C171.772 58.76 172.492 58.68 173.252 58.44V63.16C172.452 63.96 170.692 64.24 169.252 64.24C165.412 64.24 162.612 62.36 162.612 57.6V48.12H159.532V43.2H162.612V37.88H168.812V43.2H173.172V48.12H168.812V56.6C168.812 57.64 169.412 58.76 171.292 58.76ZM194.163 58.76C194.643 58.76 195.363 58.68 196.123 58.44V63.16C195.323 63.96 193.563 64.24 192.123 64.24C188.283 64.24 185.483 62.36 185.483 57.6V48.12H182.403V43.2H185.483V37.88H191.683V43.2H196.043V48.12H191.683V56.6C191.683 57.64 192.283 58.76 194.163 58.76ZM208.434 64.4C202.994 64.4 197.394 60.68 197.394 53.6C197.394 46.52 202.994 42.8 208.434 42.8C213.874 42.8 219.474 46.52 219.474 53.6C219.474 60.68 213.874 64.4 208.434 64.4ZM208.434 58.8C211.114 58.8 213.354 56.8 213.354 53.6C213.354 50.4 211.114 48.4 208.434 48.4C205.754 48.4 203.514 50.4 203.514 53.6C203.514 56.8 205.754 58.8 208.434 58.8ZM40.36 104L34.36 96.44L32.08 99V104H25.88V75.6H32.08V91.08L38.96 83.2H46.36L38.2 92.24L47.2 104H40.36ZM61.5119 82.8C65.7119 82.8 69.2719 85.4 69.2719 91.76V104H63.0719V92.84C63.0719 90.24 61.7519 88.32 59.1919 88.32C56.6719 88.32 55.3519 90.24 55.3519 92.84V104H49.1519V83.2H55.3519V85.84C56.5119 84.08 58.5519 82.8 61.5119 82.8ZM82.6591 104.4C77.2191 104.4 71.6191 100.68 71.6191 93.6C71.6191 86.52 77.2191 82.8 82.6591 82.8C88.0991 82.8 93.6991 86.52 93.6991 93.6C93.6991 100.68 88.0991 104.4 82.6591 104.4ZM82.6591 98.8C85.3391 98.8 87.5791 96.8 87.5791 93.6C87.5791 90.4 85.3391 88.4 82.6591 88.4C79.9791 88.4 77.7391 90.4 77.7391 93.6C77.7391 96.8 79.9791 98.8 82.6591 98.8ZM122.956 83.2H129.116L121.516 104H115.876L111.276 91.08L106.676 104H101.036L93.4363 83.2H99.5963L103.956 96.68L108.476 83.2H114.076L118.596 96.68L122.956 83.2ZM163.443 82.8C167.843 82.8 171.043 85.6 171.043 92V104H164.843V92.24C164.843 89.6 163.403 88.32 161.523 88.32C159.523 88.32 158.003 89.6 158.003 92.24V104H151.803V92.24C151.803 89.6 150.363 88.32 148.483 88.32C146.523 88.32 144.963 89.6 144.963 92.24V104H138.763V83.2H144.963V85.76C146.083 84.04 148.003 82.8 150.763 82.8C153.203 82.8 155.323 83.84 156.643 86.08C157.923 84.2 160.163 82.8 163.443 82.8ZM184.458 104.4C179.018 104.4 173.418 100.68 173.418 93.6C173.418 86.52 179.018 82.8 184.458 82.8C189.898 82.8 195.498 86.52 195.498 93.6C195.498 100.68 189.898 104.4 184.458 104.4ZM184.458 98.8C187.138 98.8 189.378 96.8 189.378 93.6C189.378 90.4 187.138 88.4 184.458 88.4C181.778 88.4 179.538 90.4 179.538 93.6C179.538 96.8 181.778 98.8 184.458 98.8ZM210.486 82.8C210.966 82.8 211.446 82.84 211.966 83V88.88C211.486 88.8 211.046 88.76 210.526 88.76C206.406 88.76 204.046 91.52 204.046 95.44V104H197.846V83.2H204.046V88.84C204.726 85.48 206.726 82.8 210.486 82.8ZM223.335 82.8C228.615 82.8 234.815 86.48 233.495 96H218.695C219.535 98.24 221.615 99.36 224.375 99.36C226.215 99.36 227.855 98.92 229.375 97.76L232.175 100.68C230.455 102.84 227.495 104.4 223.695 104.4C217.935 104.4 212.735 100.48 212.735 93.64C212.735 86.6 217.975 82.8 223.335 82.8ZM223.415 88C221.335 88 219.255 89.08 218.575 91.56H228.055C227.615 89.16 225.495 88 223.415 88Z" fill="white"/>
<path d="M34.8 144.4C30.08 144.4 24.88 140.84 24.88 133.6C24.88 126.36 30.08 122.8 34.8 122.8C38.48 122.8 40.64 124.8 40.96 125.56H41.08V123.2H47.28V144H41.08V141.64H40.96C40.64 142.4 38.48 144.4 34.8 144.4ZM36.08 138.88C38.8 138.88 41.24 137 41.24 133.6C41.24 130.2 38.8 128.32 36.08 128.32C33.44 128.32 31 130.24 31 133.6C31 136.96 33.44 138.88 36.08 138.88ZM63.1163 122.8C67.8363 122.8 73.0363 126.36 73.0363 133.6C73.0363 140.84 67.8363 144.4 63.1163 144.4C59.4363 144.4 57.2763 142.4 56.9563 141.64H56.8363V144H50.6363V115.6H56.8363V125.56H56.9563C57.2763 124.8 59.4363 122.8 63.1163 122.8ZM61.8363 138.88C64.4763 138.88 66.9563 136.96 66.9563 133.6C66.9563 130.24 64.4763 128.32 61.8363 128.32C59.1163 128.32 56.6763 130.2 56.6763 133.6C56.6763 137 59.1163 138.88 61.8363 138.88ZM85.4325 144.4C79.9925 144.4 74.3925 140.68 74.3925 133.6C74.3925 126.52 79.9925 122.8 85.4325 122.8C90.8725 122.8 96.4725 126.52 96.4725 133.6C96.4725 140.68 90.8725 144.4 85.4325 144.4ZM85.4325 138.8C88.1125 138.8 90.3525 136.8 90.3525 133.6C90.3525 130.4 88.1125 128.4 85.4325 128.4C82.7525 128.4 80.5125 130.4 80.5125 133.6C80.5125 136.8 82.7525 138.8 85.4325 138.8ZM112.741 123.2H118.941V144H112.741V141.36C111.581 143.12 109.541 144.4 106.581 144.4C102.381 144.4 98.8206 141.8 98.8206 135.44V123.2H105.021V134.36C105.021 136.96 106.341 138.88 108.901 138.88C111.421 138.88 112.741 136.96 112.741 134.36V123.2ZM133.048 138.76C133.528 138.76 134.248 138.68 135.008 138.44V143.16C134.208 143.96 132.448 144.24 131.008 144.24C127.168 144.24 124.368 142.36 124.368 137.6V128.12H121.288V123.2H124.368V117.88H130.568V123.2H134.928V128.12H130.568V136.6C130.568 137.64 131.168 138.76 133.048 138.76ZM40.2 184.4C32.2 184.4 25.48 178.68 25.48 169.8C25.48 160.92 32.24 155.2 40.24 155.2C44.28 155.2 48.96 156.64 51.88 161.6L47.32 164.76C45.68 162.36 43.16 161.2 40.4 161.2C35.76 161.2 32 164.48 32 169.8C32 175.2 35.84 178.4 40.44 178.4C43.32 178.4 45.68 177.24 47.32 174.84L51.88 178C48.96 182.96 44.24 184.4 40.2 184.4ZM63.6841 184.4C58.2441 184.4 52.6441 180.68 52.6441 173.6C52.6441 166.52 58.2441 162.8 63.6841 162.8C69.1241 162.8 74.7241 166.52 74.7241 173.6C74.7241 180.68 69.1241 184.4 63.6841 184.4ZM63.6841 178.8C66.3641 178.8 68.6041 176.8 68.6041 173.6C68.6041 170.4 66.3641 168.4 63.6841 168.4C61.0041 168.4 58.7641 170.4 58.7641 173.6C58.7641 176.8 61.0041 178.8 63.6841 178.8ZM92.2722 155.6H98.4722V184H92.2722V181.64H92.1522C91.8322 182.4 89.6722 184.4 85.9922 184.4C81.2722 184.4 76.0722 180.84 76.0722 173.6C76.0722 166.36 81.2722 162.8 85.9922 162.8C89.6722 162.8 91.8322 164.8 92.1522 165.56H92.2722V155.6ZM87.2722 178.88C89.9922 178.88 92.4322 177 92.4322 173.6C92.4322 170.2 89.9922 168.32 87.2722 168.32C84.6322 168.32 82.1922 170.24 82.1922 173.6C82.1922 176.96 84.6322 178.88 87.2722 178.88ZM111.428 162.8C116.708 162.8 122.908 166.48 121.588 176H106.788C107.628 178.24 109.708 179.36 112.468 179.36C114.308 179.36 115.948 178.92 117.468 177.76L120.268 180.68C118.548 182.84 115.588 184.4 111.788 184.4C106.028 184.4 100.828 180.48 100.828 173.64C100.828 166.6 106.068 162.8 111.428 162.8ZM111.508 168C109.428 168 107.348 169.08 106.668 171.56H116.148C115.708 169.16 113.588 168 111.508 168ZM138.083 163.2H144.283V184H138.083V181.36C136.923 183.12 134.883 184.4 131.923 184.4C127.723 184.4 124.163 181.8 124.163 175.44V163.2H130.363V174.36C130.363 176.96 131.683 178.88 134.243 178.88C136.763 178.88 138.083 176.96 138.083 174.36V163.2ZM160.11 162.8C164.83 162.8 170.03 166.36 170.03 173.6C170.03 180.84 164.83 184.4 160.11 184.4C156.43 184.4 154.27 182.4 153.95 181.64H153.83V191.6H147.63V163.2H153.83V165.56H153.95C154.27 164.8 156.43 162.8 160.11 162.8ZM158.83 178.88C161.47 178.88 163.95 176.96 163.95 173.6C163.95 170.24 161.47 168.32 158.83 168.32C156.11 168.32 153.67 170.2 153.67 173.6C153.67 177 156.11 178.88 158.83 178.88Z" fill="#252A34"/>
</g>
<defs>
<clipPath id="clip0_862_2300">
<rect width="328" height="432" rx="24" fill="white"/>
</clipPath>
</defs>
</svg>
