<svg width="1232" height="456" viewBox="0 0 1232 456" fill="none" xmlns="http://www.w3.org/2000/svg">
<g clip-path="url(#clip0_724_447)">
<rect width="1232" height="600" rx="40" fill="#05204D"/>
<path d="M755.608 139.664C756.76 139.968 757.816 140.928 757.816 142.656C757.816 144.64 756.456 146 753.88 146H749.816V134.64H753.976C755.896 134.64 757.096 135.84 757.096 137.376C757.096 138.544 756.376 139.328 755.608 139.664ZM753.512 136.56H752.008V139.056H753.544C754.504 139.056 754.984 138.528 754.984 137.792C754.984 137.008 754.488 136.56 753.512 136.56ZM753.752 144.08C755.032 144.08 755.64 143.44 755.64 142.432C755.64 141.44 755.032 140.752 753.72 140.752H752.008V144.08H753.752ZM767.545 143.984H771.977V146H765.353V134.64H767.545V143.984ZM784.351 146.16C781.183 146.16 778.511 143.808 778.511 140.32C778.511 136.832 781.183 134.48 784.351 134.48C787.519 134.48 790.207 136.832 790.207 140.32C790.207 143.808 787.519 146.16 784.351 146.16ZM784.351 144.08C786.303 144.08 787.951 142.608 787.951 140.32C787.951 138.032 786.303 136.56 784.351 136.56C782.415 136.56 780.751 138.032 780.751 140.32C780.751 142.608 782.415 144.08 784.351 144.08ZM808.619 139.888C809.131 143.824 806.539 146.16 803.403 146.16C800.251 146.16 797.579 143.856 797.579 140.32C797.579 136.784 800.267 134.48 803.467 134.48C804.987 134.48 806.859 135.024 808.059 136.944L806.475 138.048C805.723 136.992 804.651 136.56 803.499 136.56C801.467 136.56 799.819 137.984 799.819 140.32C799.819 142.64 801.435 144.144 803.499 144.144C804.891 144.144 806.155 143.488 806.491 141.728H803.771V139.888H808.619Z" fill="#FF4C77"/>
<path d="M781.4 232.8C765.4 232.8 751.96 221.36 751.96 203.6C751.96 185.84 765.48 174.4 781.48 174.4C789.56 174.4 798.92 177.28 804.76 187.2L795.64 193.52C792.36 188.72 787.32 186.4 781.8 186.4C772.52 186.4 765 192.96 765 203.6C765 214.4 772.68 220.8 781.88 220.8C787.64 220.8 792.36 218.48 795.64 213.68L804.76 220C798.92 229.92 789.48 232.8 781.4 232.8ZM828.368 232.8C817.488 232.8 806.288 225.36 806.288 211.2C806.288 197.04 817.488 189.6 828.368 189.6C839.248 189.6 850.448 197.04 850.448 211.2C850.448 225.36 839.248 232.8 828.368 232.8ZM828.368 221.6C833.728 221.6 838.208 217.6 838.208 211.2C838.208 204.8 833.728 200.8 828.368 200.8C823.008 200.8 818.528 204.8 818.528 211.2C818.528 217.6 823.008 221.6 828.368 221.6ZM885.544 175.2H897.944V232H885.544V227.28H885.304C884.664 228.8 880.344 232.8 872.984 232.8C863.544 232.8 853.144 225.68 853.144 211.2C853.144 196.72 863.544 189.6 872.984 189.6C880.344 189.6 884.664 193.6 885.304 195.12H885.544V175.2ZM875.544 221.76C880.984 221.76 885.864 218 885.864 211.2C885.864 204.4 880.984 200.64 875.544 200.64C870.264 200.64 865.384 204.48 865.384 211.2C865.384 217.92 870.264 221.76 875.544 221.76ZM923.857 189.6C934.417 189.6 946.817 196.96 944.177 216H914.577C916.257 220.48 920.417 222.72 925.937 222.72C929.617 222.72 932.897 221.84 935.937 219.52L941.537 225.36C938.097 229.68 932.177 232.8 924.577 232.8C913.057 232.8 902.657 224.96 902.657 211.28C902.657 197.2 913.137 189.6 923.857 189.6ZM924.017 200C919.857 200 915.697 202.16 914.337 207.12H933.297C932.417 202.32 928.177 200 924.017 200ZM977.166 190.4H989.566V232H977.166V226.72C974.846 230.24 970.766 232.8 964.846 232.8C956.446 232.8 949.326 227.6 949.326 214.88V190.4H961.726V212.72C961.726 217.92 964.366 221.76 969.486 221.76C974.526 221.76 977.166 217.92 977.166 212.72V190.4ZM1021.22 189.6C1030.66 189.6 1041.06 196.72 1041.06 211.2C1041.06 225.68 1030.66 232.8 1021.22 232.8C1013.86 232.8 1009.54 228.8 1008.9 227.28H1008.66V247.2H996.26V190.4H1008.66V195.12H1008.9C1009.54 193.6 1013.86 189.6 1021.22 189.6ZM1018.66 221.76C1023.94 221.76 1028.9 217.92 1028.9 211.2C1028.9 204.48 1023.94 200.64 1018.66 200.64C1013.22 200.64 1008.34 204.4 1008.34 211.2C1008.34 218 1013.22 221.76 1018.66 221.76ZM782.84 280.24C788.12 281.76 793.56 286.24 793.56 295.04C793.56 305.2 786.68 312 773.8 312H752.76V255.2H774.2C783.56 255.2 789.88 261.12 789.88 268.96C789.88 275.04 786.04 278.72 782.84 280.24ZM771.48 266.24H765.4V276.8H771.72C775.8 276.8 777.72 274.56 777.72 271.44C777.72 268.08 775.56 266.24 771.48 266.24ZM773 300.96C778.52 300.96 781 298.16 781 293.76C781 289.52 778.52 286.56 772.84 286.56H765.4V300.96H773ZM798.679 312V255.2H811.079V312H798.679ZM837.881 312.8C827.001 312.8 815.801 305.36 815.801 291.2C815.801 277.04 827.001 269.6 837.881 269.6C848.761 269.6 859.961 277.04 859.961 291.2C859.961 305.36 848.761 312.8 837.881 312.8ZM837.881 301.6C843.241 301.6 847.721 297.6 847.721 291.2C847.721 284.8 843.241 280.8 837.881 280.8C832.521 280.8 828.041 284.8 828.041 291.2C828.041 297.6 832.521 301.6 837.881 301.6ZM895.057 270.4H907.457V308.48C907.457 324.96 894.497 328.64 885.217 328.64C880.737 328.64 875.777 327.92 873.137 326.16V316.24C875.057 317.52 879.217 318.32 882.897 318.32C890.737 318.32 895.057 314.64 895.057 309.52V307.28H894.577C893.937 308.8 889.777 312.8 882.577 312.8C873.137 312.8 862.657 305.68 862.657 291.2C862.657 276.72 873.137 269.6 882.577 269.6C889.777 269.6 893.937 273.6 894.577 275.12H895.057V270.4ZM885.137 301.76C890.577 301.76 895.377 298 895.377 291.2C895.377 284.4 890.577 280.64 885.137 280.64C879.777 280.64 874.897 284.48 874.897 291.2C874.897 297.92 879.777 301.76 885.137 301.76ZM927.769 312.8C919.369 312.8 913.049 308.88 911.769 300.96L921.609 298.32C922.249 300.32 923.689 303.12 927.609 303.12C929.849 303.12 931.929 302 931.929 299.68C931.929 298.32 931.129 297.04 928.409 296.16L922.809 294.08C915.929 291.6 912.969 287.12 912.969 281.92C912.969 274.16 919.929 269.6 928.089 269.6C935.929 269.6 941.609 274 943.049 280.72L933.369 283.12C932.329 279.92 930.249 279.2 928.569 279.2C926.169 279.2 924.969 280.64 924.969 282.08C924.969 283.44 925.769 284.72 928.569 285.6L933.769 287.52C938.249 289.04 944.169 292.16 944.169 299.68C944.169 308.08 937.049 312.8 927.769 312.8Z" fill="white"/>
<path d="M522.871 101.168C513.528 105.84 515.7 95.3288 517.954 89.4893C519.852 84.5718 523.486 82.7277 526.252 86.1085C529.018 89.4893 525.023 94.7142 531.784 91.3334C538.546 87.9526 534.55 95.3288 522.871 101.168Z" fill="#163069"/>
<path d="M522.871 79.0395C513.528 83.7111 515.7 73.1999 517.954 67.3604C519.852 62.4429 523.486 60.5988 526.252 63.9796C529.018 67.3604 525.023 72.5853 531.784 69.2045C538.546 65.8237 534.55 73.1999 522.871 79.0395Z" fill="#163069"/>
<path d="M522.871 56.9107C513.528 61.5824 515.7 51.0712 517.954 45.2316C519.852 40.3141 523.486 38.47 526.252 41.8508C529.018 45.2316 525.023 50.4565 531.784 47.0758C538.546 43.695 534.55 51.0712 522.871 56.9107Z" fill="#163069"/>
<path d="M522.871 34.7818C513.528 39.4535 515.7 28.9423 517.954 23.1027C519.852 18.1852 523.486 16.3411 526.252 19.7219C529.018 23.1027 525.023 28.3276 531.784 24.9468C538.546 21.566 534.55 28.9423 522.871 34.7818Z" fill="#163069"/>
<path d="M546.229 101.168C536.886 105.84 539.058 95.3288 541.312 89.4893C543.21 84.5718 546.844 82.7277 549.61 86.1085C552.376 89.4893 548.381 94.7142 555.142 91.3334C561.904 87.9526 557.909 95.3288 546.229 101.168Z" fill="#163069"/>
<path d="M546.229 79.0395C536.886 83.7111 539.058 73.1999 541.312 67.3604C543.21 62.4429 546.844 60.5988 549.61 63.9796C552.376 67.3604 548.381 72.5853 555.142 69.2045C561.904 65.8237 557.909 73.1999 546.229 79.0395Z" fill="#163069"/>
<path d="M546.229 56.9107C536.886 61.5824 539.058 51.0712 541.312 45.2316C543.21 40.3141 546.844 38.47 549.61 41.8508C552.376 45.2316 548.381 50.4565 555.142 47.0758C561.904 43.695 557.909 51.0712 546.229 56.9107Z" fill="#163069"/>
<path d="M546.229 34.7818C536.886 39.4535 539.058 28.9423 541.312 23.1027C543.21 18.1852 546.844 16.3411 549.61 19.7219C552.376 23.1027 548.381 28.3276 555.142 24.9468C561.904 21.566 557.909 28.9423 546.229 34.7818Z" fill="#163069"/>
<path d="M569.588 101.168C560.245 105.84 562.416 95.3288 564.67 89.4893C566.568 84.5718 570.202 82.7277 572.968 86.1085C575.735 89.4893 571.739 94.7142 578.501 91.3334C585.262 87.9526 581.267 95.3288 569.588 101.168Z" fill="#163069"/>
<path d="M569.588 79.0395C560.245 83.7111 562.416 73.1999 564.67 67.3604C566.568 62.4429 570.202 60.5988 572.968 63.9796C575.735 67.3604 571.739 72.5853 578.501 69.2045C585.262 65.8237 581.267 73.1999 569.588 79.0395Z" fill="#163069"/>
<path d="M569.588 56.9107C560.245 61.5824 562.416 51.0712 564.67 45.2316C566.568 40.3141 570.202 38.47 572.968 41.8508C575.735 45.2316 571.739 50.4565 578.501 47.0758C585.262 43.695 581.267 51.0712 569.588 56.9107Z" fill="#163069"/>
<path d="M569.588 34.7818C560.245 39.4535 562.416 28.9423 564.67 23.1027C566.568 18.1852 570.202 16.3411 572.968 19.7219C575.735 23.1027 571.739 28.3276 578.501 24.9468C585.262 21.566 581.267 28.9423 569.588 34.7818Z" fill="#163069"/>
<path d="M592.946 101.168C583.603 105.84 585.775 95.3288 588.028 89.4893C589.926 84.5718 593.561 82.7277 596.327 86.1085C599.093 89.4893 595.097 94.7142 601.859 91.3334C608.62 87.9526 604.625 95.3288 592.946 101.168Z" fill="#163069"/>
<path d="M592.946 79.0395C583.603 83.7111 585.775 73.1999 588.028 67.3604C589.926 62.4429 593.561 60.5988 596.327 63.9796C599.093 67.3604 595.097 72.5853 601.859 69.2045C608.62 65.8237 604.625 73.1999 592.946 79.0395Z" fill="#163069"/>
<path d="M592.946 56.9107C583.603 61.5824 585.775 51.0712 588.028 45.2316C589.926 40.3141 593.561 38.47 596.327 41.8508C599.093 45.2316 595.097 50.4565 601.859 47.0758C608.62 43.695 604.625 51.0712 592.946 56.9107Z" fill="#163069"/>
<path d="M592.946 34.7818C583.603 39.4535 585.775 28.9423 588.028 23.1027C589.926 18.1852 593.561 16.3411 596.327 19.7219C599.093 23.1027 595.097 28.3276 601.859 24.9468C608.62 21.566 604.625 28.9423 592.946 34.7818Z" fill="#163069"/>
<path d="M616.304 101.168C606.961 105.84 609.133 95.3288 611.387 89.4893C613.285 84.5718 616.919 82.7277 619.685 86.1085C622.451 89.4893 618.455 94.7142 625.217 91.3334C631.979 87.9526 627.983 95.3288 616.304 101.168Z" fill="#163069"/>
<path d="M616.304 79.0395C606.961 83.7111 609.133 73.1999 611.387 67.3604C613.285 62.4429 616.919 60.5988 619.685 63.9796C622.451 67.3604 618.455 72.5853 625.217 69.2045C631.979 65.8237 627.983 73.1999 616.304 79.0395Z" fill="#163069"/>
<path d="M616.304 56.9107C606.961 61.5824 609.133 51.0712 611.387 45.2316C613.285 40.3141 616.919 38.47 619.685 41.8508C622.451 45.2316 618.455 50.4565 625.217 47.0758C631.979 43.695 627.983 51.0712 616.304 56.9107Z" fill="#163069"/>
<path d="M616.304 34.7818C606.961 39.4535 609.133 28.9423 611.387 23.1027C613.285 18.1852 616.919 16.3411 619.685 19.7219C622.451 23.1027 618.455 28.3276 625.217 24.9468C631.979 21.566 627.983 28.9423 616.304 34.7818Z" fill="#163069"/>
<path d="M639.662 101.168C630.319 105.84 632.491 95.3288 634.745 89.4893C636.643 84.5718 640.277 82.7277 643.043 86.1085C645.809 89.4893 641.814 94.7142 648.575 91.3334C655.337 87.9526 651.341 95.3288 639.662 101.168Z" fill="#163069"/>
<path d="M639.662 79.0395C630.319 83.7111 632.491 73.1999 634.745 67.3604C636.643 62.4429 640.277 60.5988 643.043 63.9796C645.809 67.3604 641.814 72.5853 648.575 69.2045C655.337 65.8237 651.341 73.1999 639.662 79.0395Z" fill="#163069"/>
<path d="M639.662 56.9107C630.319 61.5824 632.491 51.0712 634.745 45.2316C636.643 40.3141 640.277 38.47 643.043 41.8508C645.809 45.2316 641.814 50.4565 648.575 47.0758C655.337 43.695 651.341 51.0712 639.662 56.9107Z" fill="#163069"/>
<path d="M639.662 34.7818C630.319 39.4535 632.491 28.9423 634.745 23.1027C636.643 18.1852 640.277 16.3411 643.043 19.7219C645.809 23.1027 641.814 28.3276 648.575 24.9468C655.337 21.566 651.341 28.9423 639.662 34.7818Z" fill="#163069"/>
<path d="M654 426.223C654 555.221 362.062 663 233.245 663C104.427 663 0 558.427 0 429.429C0 300.431 76.5294 370.807 205.347 370.807C510.852 229.29 654 297.225 654 426.223Z" fill="#FF4C77"/>
<path d="M1071.94 -41.2014C1150.29 -119.549 1382.08 -18.6803 1455.47 54.7126C1528.86 128.106 1524.85 251.116 1446.5 329.463C1368.15 407.811 1138.92 325.99 1188.42 237.49C1237.92 148.99 993.593 37.1464 1071.94 -41.2014Z" fill="#2361FF"/>
</g>
<defs>
<clipPath id="clip0_724_447">
<rect width="1232" height="456" rx="40" fill="white"/>
</clipPath>
</defs>
</svg>
