<svg width="40" height="35" viewBox="0 0 40 35" fill="none" xmlns="http://www.w3.org/2000/svg">
<path d="M19.9997 14.6666C23.6816 14.6666 26.6663 11.6818 26.6663 7.99992C26.6663 4.31802 23.6816 1.33325 19.9997 1.33325C16.3178 1.33325 13.333 4.31802 13.333 7.99992C13.333 11.6818 16.3178 14.6666 19.9997 14.6666Z" stroke="white" stroke-width="2.5"/>
<path opacity="0.5" d="M30 12.9998C32.7617 12.9998 35 11.1332 35 8.83317C35 6.53317 32.7617 4.6665 30 4.6665M10 12.9998C7.23833 12.9998 5 11.1332 5 8.83317C5 6.53317 7.23833 4.6665 10 4.6665" stroke="white" stroke-width="2.5" stroke-linecap="round"/>
<path d="M20 32.9998C25.5228 32.9998 30 30.0151 30 26.3332C30 22.6513 25.5228 19.6665 20 19.6665C14.4772 19.6665 10 22.6513 10 26.3332C10 30.0151 14.4772 32.9998 20 32.9998Z" stroke="white" stroke-width="2.5"/>
<path opacity="0.5" d="M33.3332 29.6666C36.2565 29.0249 38.3332 27.4016 38.3332 25.4999C38.3332 23.5983 36.2565 21.9749 33.3332 21.3333M6.6665 29.6666C3.74317 29.0249 1.6665 27.4016 1.6665 25.4999C1.6665 23.5983 3.74317 21.9749 6.6665 21.3333" stroke="white" stroke-width="2.5" stroke-linecap="round"/>
</svg>
