<svg width="40" height="40" viewBox="0 0 40 40" fill="none" xmlns="http://www.w3.org/2000/svg">
<path d="M29.1141 16.1534C30.1538 15.1137 30.1538 13.4425 30.1538 10.0965C30.1538 6.7505 30.1538 5.07928 29.1141 4.03964M29.1141 16.1534C28.0745 17.193 26.4033 17.193 23.0573 17.193H15.9608C12.6148 17.193 10.9435 17.193 9.9039 16.1534M29.1141 4.03964C28.0745 3 26.4033 3 23.0573 3H15.9608C12.6148 3 10.9435 3 9.9039 4.03964M9.9039 4.03964C8.86426 5.07928 8.86426 6.7505 8.86426 10.0965C8.86426 13.4425 8.86426 15.1137 9.9039 16.1534" stroke="white" stroke-width="1.5"/>
<path opacity="0.5" d="M21.2831 10.0964C21.2831 10.5669 21.0962 11.0182 20.7635 11.3509C20.4308 11.6836 19.9795 11.8705 19.509 11.8705C19.0385 11.8705 18.5872 11.6836 18.2545 11.3509C17.9218 11.0182 17.7349 10.5669 17.7349 10.0964C17.7349 9.62586 17.9218 9.17461 18.2545 8.8419C18.5872 8.50918 19.0385 8.32227 19.509 8.32227C19.9795 8.32227 20.4308 8.50918 20.7635 8.8419C21.0962 9.17461 21.2831 9.62586 21.2831 10.0964Z" stroke="white" stroke-width="1.5"/>
<path opacity="0.5" d="M30.1537 8.32238C28.7421 8.32238 27.3883 7.76163 26.3902 6.76349C25.3921 5.76535 24.8313 4.41158 24.8313 3M30.1537 11.8706C28.7421 11.8706 27.3883 12.4314 26.3902 13.4295C25.3921 14.4277 24.8313 15.7814 24.8313 17.193M8.86417 8.32238C10.2758 8.32238 11.6295 7.76163 12.6277 6.76349C13.6258 5.76535 14.1865 4.41158 14.1865 3M8.86417 11.8706C10.2758 11.8706 11.6295 12.4314 12.6277 13.4295C13.6258 14.4277 14.1865 15.7814 14.1865 17.193M5.31592 35.6226H9.32544C11.1173 35.6226 12.9322 35.8107 14.6762 36.1691C17.7898 36.8087 20.9935 36.8796 24.1323 36.3784C25.6722 36.13 27.1838 35.7486 28.5534 35.0886C29.7882 34.4907 31.3015 33.6516 32.3181 32.7095C33.3329 31.7692 34.3903 30.2311 35.139 29.0282C35.7848 27.9957 35.4725 26.7307 34.4542 25.9625C33.8819 25.5463 33.1925 25.3221 32.4849 25.3221C31.7773 25.3221 31.0879 25.5463 30.5156 25.9625L27.3098 28.3842C26.0679 29.3245 24.7107 30.1885 23.0944 30.4457C22.8993 30.4759 22.6953 30.5043 22.4824 30.5291M22.4824 30.5291C22.4174 30.5367 22.3523 30.5438 22.2872 30.5504M22.4824 30.5291C22.7663 30.4523 23.0267 30.306 23.2399 30.1033C23.5073 29.8721 23.7256 29.5896 23.882 29.2725C24.0383 28.9555 24.1297 28.6104 24.1505 28.2575C24.1713 27.9046 24.1213 27.5511 24.0033 27.2179C23.8853 26.8847 23.7017 26.5785 23.4635 26.3173C23.2323 26.0607 22.963 25.8411 22.6651 25.6662C17.7029 22.7052 9.9801 24.9601 5.31592 28.2689M22.4824 30.5291C22.4182 30.5431 22.3528 30.5502 22.2872 30.5504M22.2872 30.5504C21.2173 30.6579 20.1394 30.6603 19.0689 30.5575" stroke="white" stroke-width="1.5" stroke-linecap="round"/>
</svg>
