<svg width="40" height="40" viewBox="0 0 40 40" fill="none" xmlns="http://www.w3.org/2000/svg">
<path opacity="0.5" d="M27.5 12.5H22.5" stroke="white" stroke-width="2.5" stroke-linecap="round"/>
<path d="M8.33333 8.69498C8.33333 7.73998 8.33333 7.26165 8.41499 6.86331C8.76999 5.10998 10.2483 3.73998 12.135 3.40831C12.5633 3.33331 13.0783 3.33331 14.1083 3.33331C14.5583 3.33331 14.785 3.33331 15.0017 3.35165C15.935 3.43331 16.8233 3.77498 17.545 4.32998C17.7117 4.45998 17.8717 4.60831 18.1917 4.90331L18.8333 5.49998C19.785 6.38331 20.2617 6.82498 20.83 7.11998C21.1433 7.28165 21.4767 7.40998 21.82 7.49998C22.4483 7.66665 23.12 7.66665 24.4667 7.66665H24.9017C27.9733 7.66665 29.5083 7.66665 30.5067 8.49998C30.5983 8.57665 30.6867 8.65831 30.7683 8.74331C31.6667 9.66998 31.6667 11.0966 31.6667 13.9483V16.3333C31.6667 20.4183 31.6667 22.4616 30.3 23.73C28.9333 25 26.7333 25 22.3333 25H17.6667C13.2667 25 11.0667 25 9.7 23.7316C8.33333 22.46 8.33333 20.4166 8.33333 16.3333V8.69498Z" stroke="white" stroke-width="2.5"/>
<path opacity="0.5" d="M36.6667 33.3333H23.3333M3.33333 33.3333H16.6667M20 30V25" stroke="white" stroke-width="2.5" stroke-linecap="round"/>
<path d="M20 36.6667C21.8409 36.6667 23.3333 35.1743 23.3333 33.3333C23.3333 31.4924 21.8409 30 20 30C18.159 30 16.6667 31.4924 16.6667 33.3333C16.6667 35.1743 18.159 36.6667 20 36.6667Z" stroke="white" stroke-width="2.5"/>
</svg>
