<svg width="40" height="40" viewBox="0 0 40 40" fill="none" xmlns="http://www.w3.org/2000/svg">
<path opacity="0.5" d="M36.6668 28.3333V19.9999C36.6668 10.7949 29.2052 3.33325 20.0002 3.33325C10.7952 3.33325 3.3335 10.7949 3.3335 19.9999V29.9999" stroke="white" stroke-width="2.5"/>
<path d="M13.3335 25.3115C13.3335 24.3482 13.3335 23.8665 13.2185 23.4832C13.0951 23.0552 12.8617 22.6669 12.5414 22.3572C12.2212 22.0476 11.8254 21.8272 11.3935 21.7182C11.0185 21.6282 10.5602 21.6682 9.64016 21.7432C8.04683 21.8749 7.2485 21.9399 6.5985 22.1932C5.10016 22.7715 3.95683 24.0649 3.52183 25.6732C3.3335 26.3715 3.3335 27.2065 3.3335 28.8799V29.1899C3.3335 30.9065 3.3335 31.7632 3.5385 32.4882C3.72955 33.1829 4.06368 33.8299 4.51946 34.3879C4.97524 34.9458 5.54261 35.4024 6.18516 35.7282C6.8385 36.0532 7.6485 36.1865 9.2685 36.4549C10.3435 36.6315 10.8818 36.7215 11.3168 36.6315C11.7453 36.5387 12.1423 36.3363 12.4692 36.0442C12.7961 35.7521 13.0416 35.3802 13.1818 34.9649C13.3335 34.5299 13.3335 33.9599 13.3335 32.8215V25.3115ZM26.6668 25.3115C26.6668 24.3482 26.6668 23.8665 26.7818 23.4832C26.9054 23.0552 27.1389 22.6671 27.4591 22.3574C27.7792 22.0478 28.175 21.8274 28.6068 21.7182C28.9818 21.6282 29.4402 21.6682 30.3585 21.7432C31.9535 21.8749 32.7518 21.9399 33.4018 22.1932C34.9002 22.7715 36.0435 24.0649 36.4785 25.6732C36.6668 26.3715 36.6668 27.2065 36.6668 28.8799V29.1899C36.6668 30.9065 36.6668 31.7632 36.4618 32.4882C36.2707 33.1828 35.9365 33.8298 35.4807 34.3878C35.025 34.9457 34.4577 35.4023 33.8152 35.7282C33.1618 36.0532 32.3518 36.1865 30.7318 36.4549C29.6568 36.6315 29.1185 36.7215 28.6835 36.6315C28.2551 36.5387 27.858 36.3363 27.5311 36.0442C27.2043 35.7521 26.9587 35.3802 26.8185 34.9649C26.6668 34.5299 26.6668 33.9599 26.6668 32.8215V25.3115Z" stroke="white" stroke-width="2.5"/>
<path d="M20 10.8333V19.1666M25 13.3333V16.6666M15 13.3333V16.6666" stroke="white" stroke-width="2.5" stroke-linecap="round"/>
</svg>
