<svg width="493" height="297" viewBox="0 0 493 297" fill="none" xmlns="http://www.w3.org/2000/svg">
<g clip-path="url(#clip0_1160_22696)">
<path d="M161.312 28.2204C164.381 26.3627 167.651 24.9582 171.025 23.9996L173.024 14.3839L189.268 14.1016L191.608 23.6429C195.012 24.4826 198.334 25.7756 201.469 27.5219L209.681 22.1419L221.37 33.4295L216.279 41.8265C218.137 44.9029 219.542 48.1725 220.5 51.5462L230.116 53.5451L230.398 69.7892L220.857 72.13C220.017 75.5333 218.724 78.855 216.978 81.9909L222.358 90.2021L211.07 101.891L202.673 96.8008C199.604 98.6585 196.327 100.063 192.954 101.022L190.955 110.637L174.71 110.92L172.37 101.378C168.966 100.539 165.645 99.2456 162.509 97.4993L154.298 102.879L142.609 91.5917L147.699 83.1947C145.841 80.1183 144.437 76.8486 143.478 73.475L133.862 71.476L133.58 55.232L143.121 52.8912C143.961 49.4878 145.254 46.1662 147 43.0303L141.62 34.8191L152.908 23.1302L161.305 28.2204H161.312ZM169.977 49.8668C163.289 56.7925 163.482 67.8274 170.408 74.5153C177.334 81.2032 188.369 81.01 195.056 74.0843C201.744 67.1587 201.551 56.1237 194.625 49.4358C187.7 42.7479 176.665 42.9411 169.977 49.8668Z" fill="#E0E0E0"/>
<path d="M87.6364 8.9969C89.5833 7.81538 91.6639 6.92366 93.8041 6.31432L95.0748 0.213499L105.389 0.0351562L106.875 6.09139C109.038 6.62642 111.141 7.44383 113.132 8.55104L118.341 5.1328L125.757 12.2963L122.525 17.6243C123.706 19.5712 124.598 21.6518 125.207 23.792L131.308 25.0626L131.486 35.3768L125.43 36.863C124.895 39.0254 124.078 41.1284 122.971 43.1199L126.389 48.329L119.225 55.7451L113.897 52.5126C111.95 53.6942 109.87 54.5859 107.73 55.1952L106.459 61.296L96.1522 61.4744L94.666 55.4181C92.5036 54.8831 90.4007 54.0657 88.4092 52.9585L83.2001 56.3767L75.784 49.2133L79.0164 43.8853C77.8349 41.9384 76.9432 39.8577 76.3339 37.7176L70.233 36.4469L70.0547 26.1327L76.1109 24.6465C76.646 22.4841 77.4634 20.3811 78.5706 18.3896L75.1523 13.1805L82.3158 5.76443L87.6438 8.9969H87.6364ZM93.1353 22.7293C88.8922 27.1285 89.0111 34.1284 93.4102 38.3715C97.8019 42.6146 104.809 42.4883 109.052 38.0966C113.295 33.7049 113.177 26.6975 108.777 22.4544C104.378 18.2113 97.3784 18.3376 93.1353 22.7293Z" fill="#F5F5F5"/>
<path d="M445.251 140.643C447.302 139.402 449.479 138.466 451.731 137.826L453.069 131.406L463.91 131.213L465.471 137.581C467.745 138.139 469.959 139.001 472.047 140.167L477.524 136.578L485.326 144.113L481.93 149.716C483.171 151.767 484.108 153.952 484.747 156.203L491.16 157.541L491.353 168.383L484.985 169.943C484.427 172.217 483.565 174.431 482.399 176.519L485.988 181.996L478.46 189.799L472.857 186.403C470.806 187.644 468.621 188.58 466.37 189.219L465.032 195.639L454.191 195.833L452.63 189.464C450.356 188.907 448.142 188.045 446.054 186.878L440.577 190.467L432.775 182.932L436.171 177.329C434.93 175.279 433.993 173.094 433.354 170.842L426.941 169.505L426.748 158.663L433.116 157.102C433.674 154.828 434.536 152.614 435.702 150.526L432.113 145.049L439.641 137.247L445.244 140.643H445.251ZM451.032 155.089C446.574 159.711 446.7 167.075 451.322 171.533C455.944 175.992 463.308 175.866 467.767 171.243C472.226 166.621 472.099 159.257 467.477 154.799C462.855 150.34 455.491 150.467 451.032 155.089Z" fill="#F5F5F5"/>
<path d="M37.6914 88.843C39.9207 87.498 42.2912 86.4725 44.736 85.7814L46.185 78.8038L57.9705 78.5957L59.6648 85.5139C62.1319 86.1233 64.5395 87.0596 66.8134 88.3303L72.773 84.4216L81.2517 92.6105L77.5585 98.6965C78.9036 100.926 79.929 103.296 80.6201 105.748L87.5978 107.197L87.8059 118.983L80.8876 120.677C80.2783 123.144 79.342 125.552 78.0713 127.826L81.9725 133.785L73.7836 142.264L67.6902 138.571C65.4609 139.916 63.0905 140.942 60.6382 141.633L59.1892 148.61L47.4037 148.818L45.7094 141.9C43.2423 141.291 40.8347 140.354 38.5608 139.084L32.6012 142.992L24.1225 134.804L27.8157 128.71C26.4707 126.481 25.4452 124.11 24.7541 121.658L17.7764 120.209L17.5684 108.424L24.4866 106.729C25.0959 104.262 26.0322 101.855 27.3029 99.5808L23.4017 93.6211L31.5906 85.1424L37.684 88.8356L37.6914 88.843ZM43.978 104.545C39.1256 109.568 39.2668 117.579 44.2901 122.424C49.3134 127.276 57.324 127.135 62.169 122.111C67.0214 117.088 66.8802 109.078 61.8569 104.233C56.8336 99.3801 48.823 99.5213 43.978 104.545Z" fill="#E0E0E0"/>
<path d="M489.716 296.131C489.716 296.235 380.079 296.324 244.873 296.324C109.666 296.324 0 296.235 0 296.131C0 296.027 109.614 295.938 244.873 295.938C380.131 295.938 489.716 296.027 489.716 296.131Z" fill="#263238"/>
<path d="M439.533 215.571C438.107 210.711 434.332 208.199 430.066 208.125C426.21 208.965 424.857 212.851 424.553 216.782C424.248 220.72 425.623 224.57 426.975 228.278C431.315 240.182 435.662 252.087 440.002 263.991C443.628 263.449 447.262 262.899 450.888 262.356C446.779 246.335 444.185 231.436 439.526 215.571H439.533Z" fill="#455A64"/>
<path d="M430.214 207.806C430.252 207.836 429.657 208.386 428.966 209.634C428.275 210.867 427.576 212.874 427.532 215.423C427.465 217.971 428.156 220.974 429.241 224.169C430.333 227.386 431.53 230.909 432.786 234.617C435.267 242.025 437.512 248.728 439.161 253.625C439.949 256.033 440.588 257.995 441.049 259.399C441.257 260.053 441.42 260.581 441.539 260.974C441.651 261.339 441.695 261.532 441.688 261.532C441.673 261.532 441.599 261.353 441.465 260.997C441.324 260.603 441.138 260.09 440.9 259.444C440.41 258.047 439.726 256.1 438.894 253.707C437.222 248.817 434.933 242.13 432.407 234.736C431.158 231.028 429.969 227.498 428.892 224.273C427.822 221.055 427.153 218.001 427.249 215.4C427.331 212.8 428.089 210.778 428.832 209.545C429.575 208.296 430.214 207.791 430.214 207.791V207.806Z" fill="#263238"/>
<path d="M448.464 261.287C448.464 261.287 448.36 261.116 448.196 260.774C448.04 260.432 447.788 259.927 447.513 259.258C446.94 257.935 446.19 255.981 445.395 253.529C444.6 251.077 443.797 248.104 443.002 244.79C442.237 241.468 441.39 237.827 440.505 234C439.591 230.181 438.595 226.577 437.481 223.367C436.366 220.156 435.155 217.34 433.951 215.074C432.755 212.8 431.625 211.046 430.793 209.879C430.392 209.285 430.035 208.854 429.82 208.542C429.597 208.237 429.485 208.074 429.493 208.059C429.5 208.051 429.634 208.2 429.879 208.49C430.117 208.787 430.496 209.203 430.919 209.783C431.804 210.927 432.97 212.666 434.204 214.933C435.445 217.199 436.693 220.023 437.83 223.24C438.967 226.458 439.978 230.077 440.892 233.904C441.769 237.731 442.601 241.379 443.359 244.708C444.132 248.023 444.904 250.988 445.662 253.447C446.413 255.907 447.119 257.869 447.654 259.206C447.906 259.882 448.137 260.388 448.271 260.744C448.412 261.094 448.479 261.287 448.464 261.294V261.287Z" fill="#263238"/>
<path d="M427.101 226.466C427.131 226.57 426.544 226.838 425.793 227.046C425.043 227.261 424.404 227.35 424.374 227.239C424.344 227.135 424.931 226.875 425.682 226.659C426.433 226.444 427.072 226.355 427.101 226.466Z" fill="#263238"/>
<path d="M425.645 219.049C425.645 219.161 424.82 219.243 423.809 219.324C422.799 219.406 421.974 219.458 421.952 219.347C421.929 219.243 422.747 219.005 423.772 218.923C424.805 218.841 425.645 218.938 425.637 219.049H425.645Z" fill="#263238"/>
<path d="M426.602 212.184C426.535 212.273 425.925 211.909 425.242 211.374C424.558 210.839 424.06 210.333 424.127 210.252C424.194 210.163 424.803 210.527 425.487 211.062C426.171 211.597 426.669 212.102 426.602 212.184Z" fill="#263238"/>
<path d="M429.679 205.741C429.79 205.763 429.783 206.29 429.79 206.937C429.79 207.583 429.82 208.111 429.708 208.133C429.604 208.156 429.396 207.628 429.389 206.937C429.381 206.246 429.575 205.711 429.679 205.733V205.741Z" fill="#263238"/>
<path d="M436.621 208.439C436.718 208.498 436.473 209.048 436.071 209.665C435.677 210.282 435.276 210.735 435.187 210.676C435.09 210.616 435.336 210.066 435.737 209.449C436.131 208.833 436.532 208.379 436.621 208.439Z" fill="#263238"/>
<path d="M441.346 215.943C441.39 216.047 440.84 216.396 440.112 216.723C439.384 217.058 438.76 217.243 438.708 217.139C438.663 217.035 439.213 216.686 439.941 216.359C440.669 216.025 441.294 215.839 441.346 215.943Z" fill="#263238"/>
<path d="M444.355 223.739C444.407 223.836 443.671 224.296 442.653 224.564C441.635 224.839 440.773 224.809 440.766 224.705C440.758 224.593 441.576 224.437 442.549 224.177C443.53 223.917 444.31 223.635 444.355 223.739Z" fill="#263238"/>
<path d="M431.938 221.992C431.834 221.962 431.886 221.412 432.057 220.766C432.235 220.119 432.458 219.614 432.57 219.644C432.674 219.674 432.622 220.223 432.451 220.87C432.273 221.516 432.05 222.022 431.938 221.992Z" fill="#263238"/>
<path d="M434.063 231.845C433.959 231.807 434.153 231.057 434.494 230.18C434.836 229.303 435.193 228.62 435.297 228.664C435.401 228.701 435.208 229.452 434.866 230.329C434.524 231.206 434.167 231.889 434.063 231.845Z" fill="#263238"/>
<path d="M429.925 234.736C429.888 234.84 429.182 234.684 428.335 234.454C427.488 234.224 426.797 234.016 426.819 233.904C426.834 233.793 427.569 233.837 428.439 234.068C429.308 234.298 429.962 234.632 429.925 234.736Z" fill="#263238"/>
<path d="M432.697 242.732C432.764 242.821 432.318 243.281 431.694 243.764C431.069 244.247 430.512 244.567 430.438 244.485C430.363 244.403 430.817 243.935 431.441 243.452C432.065 242.969 432.622 242.65 432.697 242.732Z" fill="#263238"/>
<path d="M434.984 250.72C435.014 250.824 434.442 251.084 433.713 251.292C432.978 251.5 432.361 251.59 432.331 251.478C432.301 251.367 432.874 251.114 433.602 250.906C434.338 250.698 434.954 250.609 434.984 250.72Z" fill="#263238"/>
<path d="M444.84 230.471C444.899 230.561 444.424 230.977 443.71 231.274C442.997 231.579 442.365 231.631 442.343 231.527C442.313 231.415 442.878 231.192 443.554 230.902C444.23 230.62 444.78 230.375 444.84 230.464V230.471Z" fill="#263238"/>
<path d="M446.868 242.963C446.823 243.067 446.229 242.91 445.53 242.621C444.839 242.331 444.312 242.004 444.356 241.907C444.401 241.803 444.995 241.959 445.694 242.249C446.385 242.539 446.912 242.866 446.868 242.963Z" fill="#263238"/>
<path d="M449.913 251.835C449.876 251.939 449.088 251.76 448.152 251.441C447.216 251.114 446.488 250.772 446.525 250.661C446.562 250.557 447.35 250.735 448.286 251.054C449.222 251.381 449.95 251.723 449.913 251.827V251.835Z" fill="#263238"/>
<path d="M435.773 259.459C435.714 259.362 436.412 258.849 437.215 258.158C438.017 257.475 438.634 256.865 438.723 256.94C438.805 257.007 438.314 257.757 437.475 258.463C436.643 259.176 435.825 259.548 435.773 259.451V259.459Z" fill="#263238"/>
<path d="M442.693 254.599C442.581 254.614 442.403 254.019 442.098 253.328C441.801 252.637 441.489 252.095 441.578 252.028C441.66 251.961 442.143 252.422 442.47 253.172C442.797 253.915 442.804 254.592 442.693 254.599Z" fill="#263238"/>
<path d="M440.373 243.877C440.314 243.966 439.846 243.773 439.333 243.431C438.82 243.089 438.449 242.74 438.508 242.651C438.568 242.561 439.036 242.755 439.556 243.096C440.069 243.438 440.44 243.788 440.381 243.877H440.373Z" fill="#263238"/>
<path d="M448.345 234.959C448.374 235.063 447.735 235.323 446.903 235.412C446.071 235.501 445.387 235.382 445.395 235.278C445.395 235.167 446.056 235.1 446.859 235.011C447.661 234.929 448.315 234.847 448.345 234.959Z" fill="#263238"/>
<path d="M449.008 228.479C449.008 228.583 448.354 228.628 447.618 228.33C446.89 228.033 446.451 227.543 446.526 227.461C446.6 227.372 447.105 227.684 447.774 227.959C448.435 228.234 449.015 228.367 449.008 228.486V228.479Z" fill="#263238"/>
<path d="M450.271 246.233C450.256 246.344 449.706 246.359 449.038 246.27C448.376 246.181 447.849 246.017 447.864 245.906C447.878 245.794 448.428 245.779 449.097 245.868C449.758 245.958 450.286 246.121 450.271 246.233Z" fill="#263238"/>
<path d="M470.267 234.312C470.193 234.393 469.643 233.992 469.048 233.412C468.454 232.84 468.038 232.305 468.112 232.223C468.186 232.142 468.736 232.543 469.331 233.123C469.925 233.695 470.341 234.23 470.267 234.312Z" fill="#263238"/>
<path d="M490.288 209.739C490.622 207.302 490.927 204.79 490.377 202.39C489.819 199.989 488.229 197.678 485.874 196.958C483.184 196.133 480.219 197.597 478.457 199.796C476.704 201.988 475.909 204.782 475.195 207.502C470.276 226.243 467.304 245.489 466.33 264.832L477.395 267.463C484.216 247.8 487.441 230.36 490.288 209.739Z" fill="#455A64"/>
<path d="M484.321 196.727C484.321 196.727 484.306 196.786 484.254 196.898C484.195 197.032 484.113 197.188 484.024 197.388C483.794 197.842 483.489 198.466 483.095 199.254C482.902 199.662 482.649 200.101 482.434 200.606C482.218 201.111 481.981 201.661 481.728 202.256C481.475 202.85 481.2 203.482 480.918 204.143C480.665 204.827 480.405 205.555 480.13 206.313C478.993 209.345 477.931 213.053 476.92 217.207C475.917 221.368 475.077 226.005 474.304 230.88C472.803 240.651 471.874 249.561 471.012 255.989C470.589 259.207 470.232 261.8 469.942 263.591C469.801 264.46 469.69 265.144 469.608 265.649C469.571 265.865 469.534 266.043 469.511 266.184C469.489 266.303 469.474 266.363 469.467 266.363C469.467 266.363 469.467 266.296 469.467 266.177C469.482 266.028 469.504 265.857 469.526 265.634C469.593 265.129 469.675 264.438 469.786 263.561C470.032 261.763 470.344 259.162 470.73 255.944C471.518 249.509 472.402 240.599 473.903 230.805C474.676 225.916 475.53 221.279 476.556 217.11C477.596 212.949 478.681 209.233 479.863 206.201C480.153 205.444 480.42 204.723 480.68 204.032C480.977 203.363 481.26 202.739 481.527 202.144C481.787 201.557 482.04 201.015 482.263 200.502C482.493 199.997 482.753 199.566 482.961 199.164C483.385 198.392 483.712 197.775 483.957 197.329C484.069 197.136 484.15 196.987 484.225 196.853C484.284 196.749 484.321 196.697 484.329 196.697L484.321 196.727Z" fill="#263238"/>
<path d="M485.36 196.83C485.36 196.83 485.984 197.603 486.512 199.282C487.069 200.947 487.27 203.54 486.853 206.632C485.969 212.799 484.617 221.285 482.989 230.648C481.362 240.011 479.735 248.453 478.494 254.554C477.869 257.601 477.349 260.068 476.978 261.769C476.792 262.594 476.643 263.241 476.539 263.724C476.487 263.924 476.45 264.095 476.413 264.229C476.383 264.34 476.361 264.4 476.354 264.4C476.354 264.4 476.353 264.34 476.368 264.222C476.391 264.08 476.42 263.909 476.45 263.709C476.539 263.226 476.666 262.564 476.814 261.74C477.149 259.993 477.624 257.534 478.204 254.502C479.378 248.386 480.953 239.937 482.581 230.582C484.208 221.226 485.612 212.74 486.564 206.602C487.017 203.533 486.853 200.991 486.356 199.334C485.88 197.67 485.3 196.867 485.352 196.838L485.36 196.83Z" fill="#263238"/>
<path d="M490.405 226.591C490.36 226.695 489.432 226.353 488.332 225.84C487.232 225.328 486.385 224.83 486.429 224.726C486.474 224.622 487.403 224.963 488.503 225.476C489.602 225.989 490.45 226.487 490.405 226.591Z" fill="#263238"/>
<path d="M492.829 215.29C492.866 215.394 491.915 215.81 490.703 216.226C489.492 216.635 488.482 216.888 488.444 216.776C488.407 216.672 489.358 216.256 490.57 215.84C491.781 215.431 492.792 215.179 492.829 215.29Z" fill="#263238"/>
<path d="M493.007 205.889C492.992 206 492.234 205.963 491.328 205.814C490.421 205.666 489.693 205.458 489.715 205.346C489.73 205.235 490.488 205.272 491.395 205.42C492.301 205.569 493.03 205.777 493.007 205.889Z" fill="#263238"/>
<path d="M481.995 198.822C481.899 198.874 481.46 198.213 481.029 197.351C480.591 196.489 480.323 195.746 480.42 195.701C480.517 195.657 480.955 196.311 481.386 197.173C481.825 198.035 482.092 198.77 481.995 198.822Z" fill="#263238"/>
<path d="M477.638 204.106C477.624 204.218 476.903 204.225 476.033 204.121C475.157 204.017 474.458 203.846 474.473 203.735C474.488 203.623 475.209 203.616 476.078 203.72C476.955 203.824 477.653 203.995 477.638 204.106Z" fill="#263238"/>
<path d="M473.833 215.133C473.781 215.23 473.053 214.955 472.198 214.516C471.344 214.078 470.697 213.639 470.749 213.543C470.801 213.446 471.529 213.721 472.384 214.16C473.231 214.598 473.885 215.036 473.833 215.133Z" fill="#263238"/>
<path d="M472.645 224.6C472.66 224.711 471.999 224.875 471.174 224.971C470.349 225.068 469.665 225.053 469.651 224.941C469.636 224.83 470.297 224.667 471.122 224.57C471.947 224.473 472.63 224.488 472.645 224.6Z" fill="#263238"/>
<path d="M469.889 240.004C469.896 240.116 469.198 240.264 468.329 240.339C467.459 240.413 466.746 240.383 466.738 240.272C466.731 240.16 467.429 240.012 468.299 239.937C469.168 239.863 469.882 239.893 469.889 240.004Z" fill="#263238"/>
<path d="M468.225 248.491C468.27 248.595 467.668 248.944 466.88 249.263C466.093 249.59 465.424 249.769 465.379 249.665C465.335 249.561 465.937 249.211 466.724 248.892C467.512 248.565 468.181 248.387 468.225 248.491Z" fill="#263238"/>
<path d="M474.31 258.88C474.205 258.924 473.782 258.196 473.351 257.26C472.92 256.316 472.66 255.513 472.756 255.469C472.86 255.424 473.284 256.152 473.715 257.089C474.146 258.032 474.406 258.835 474.31 258.88Z" fill="#263238"/>
<path d="M477.848 242.903C477.915 242.992 477.305 243.602 476.48 244.271C475.656 244.939 474.927 245.415 474.86 245.326C474.794 245.237 475.403 244.627 476.228 243.959C477.053 243.29 477.773 242.814 477.848 242.903Z" fill="#263238"/>
<path d="M478.205 234.379C478.116 234.446 477.647 233.978 477.157 233.339C476.666 232.7 476.34 232.12 476.429 232.053C476.518 231.986 476.986 232.455 477.476 233.094C477.967 233.733 478.294 234.312 478.205 234.379Z" fill="#263238"/>
<path d="M480.614 223.671C480.688 223.753 480.168 224.355 479.455 225.016C478.742 225.678 478.102 226.146 478.021 226.064C477.946 225.982 478.467 225.38 479.18 224.719C479.893 224.058 480.532 223.59 480.614 223.671Z" fill="#263238"/>
<path d="M482.136 215.876C482.054 215.95 481.459 215.386 480.813 214.62C480.166 213.855 479.713 213.179 479.802 213.104C479.884 213.03 480.478 213.595 481.125 214.36C481.771 215.125 482.225 215.802 482.136 215.876Z" fill="#263238"/>
<path d="M484.669 205.392C484.758 205.459 484.372 206.142 483.799 206.915C483.235 207.688 482.7 208.268 482.61 208.201C482.521 208.134 482.908 207.45 483.48 206.678C484.045 205.905 484.58 205.325 484.669 205.392Z" fill="#263238"/>
<path d="M488.489 195.814C488.578 195.873 488.229 196.564 487.709 197.345C487.181 198.132 486.683 198.719 486.594 198.652C486.505 198.593 486.854 197.902 487.374 197.122C487.902 196.334 488.4 195.747 488.489 195.814Z" fill="#263238"/>
<path d="M491.342 200.591C491.379 200.695 490.904 200.97 490.272 201.2C489.641 201.431 489.106 201.535 489.068 201.431C489.031 201.327 489.507 201.052 490.139 200.822C490.77 200.591 491.305 200.487 491.342 200.591Z" fill="#263238"/>
<path d="M488.087 235.992C488.058 236.096 487.055 235.858 485.947 235.256C484.84 234.654 484.09 233.941 484.156 233.859C484.231 233.77 485.063 234.32 486.133 234.899C487.203 235.487 488.125 235.88 488.087 235.992Z" fill="#263238"/>
<path d="M486.043 243.356C486.051 243.467 485.36 243.623 484.49 243.713C483.621 243.794 482.907 243.772 482.893 243.668C482.885 243.557 483.576 243.401 484.446 243.311C485.315 243.23 486.028 243.252 486.043 243.356Z" fill="#263238"/>
<path d="M483.191 256.057C483.117 256.131 482.314 255.47 481.623 254.399C480.925 253.329 480.642 252.326 480.739 252.297C480.851 252.252 481.289 253.158 481.958 254.184C482.627 255.217 483.273 255.982 483.184 256.064L483.191 256.057Z" fill="#263238"/>
<path d="M464.606 260.232C464.539 260.143 465.044 259.675 465.728 259.192C466.411 258.709 467.021 258.389 467.088 258.486C467.154 258.575 466.649 259.043 465.965 259.526C465.282 260.009 464.672 260.329 464.613 260.232H464.606Z" fill="#263238"/>
<path d="M462.338 226.361C461.892 223.664 460.784 220.431 458.087 220C456.482 219.74 454.869 220.684 453.911 221.984C452.945 223.292 452.387 224.882 452.202 226.495C450.953 237.144 451.013 249.531 453.064 261.108L462.962 262.557C464.634 250.274 464.374 238.585 462.345 226.354L462.338 226.361Z" fill="#455A64"/>
<path d="M458.079 220C458.116 220.037 457.61 220.386 457.038 221.278C456.466 222.177 456.035 223.678 455.931 225.588C455.849 227.497 455.73 229.794 455.678 232.32C455.634 234.854 455.678 237.641 455.827 240.569C456.109 246.417 456.622 251.708 456.882 255.542C457.016 257.459 457.098 259.012 457.142 260.09C457.157 260.58 457.165 260.989 457.172 261.331C457.172 261.613 457.172 261.762 457.15 261.762C457.135 261.762 457.113 261.613 457.076 261.331C457.046 260.996 457.009 260.588 456.957 260.097C456.853 258.953 456.719 257.422 456.555 255.564C456.221 251.737 455.656 246.454 455.366 240.583C455.225 237.648 455.188 234.854 455.255 232.305C455.277 231.035 455.351 229.823 455.411 228.694C455.485 227.572 455.515 226.517 455.604 225.551C455.753 223.619 456.243 222.065 456.882 221.174C457.521 220.282 458.079 219.992 458.079 219.992V220Z" fill="#263238"/>
<path d="M463.236 222.994C463.296 223.105 462.716 223.529 461.951 223.937C461.178 224.346 460.509 224.591 460.45 224.48C460.39 224.368 460.97 223.945 461.735 223.536C462.508 223.127 463.177 222.882 463.236 222.994Z" fill="#263238"/>
<path d="M464.923 231.094C464.923 231.221 464.105 231.265 463.147 231.02C462.188 230.775 461.497 230.336 461.556 230.225C461.608 230.106 462.351 230.344 463.265 230.574C464.179 230.812 464.937 230.968 464.93 231.094H464.923Z" fill="#263238"/>
<path d="M464.745 239.491C464.663 239.588 463.957 239.12 463.177 238.451C462.389 237.782 461.825 237.158 461.906 237.061C461.988 236.965 462.694 237.433 463.474 238.102C464.262 238.771 464.827 239.395 464.745 239.491Z" fill="#263238"/>
<path d="M487.925 257.668H430.662V267.819H487.925V257.668Z" fill="#FF725E"/>
<path d="M434.934 265.805L441.896 296.13H476.027L483.651 265.805H434.934Z" fill="#FF725E"/>
<path d="M487.895 267.826C487.895 267.937 474.98 268.026 459.048 268.026C443.116 268.026 430.201 267.937 430.201 267.826C430.201 267.714 443.116 267.625 459.048 267.625C474.98 267.625 487.895 267.714 487.895 267.826Z" fill="#263238"/>
<path d="M459.268 232.275C459.149 232.327 458.785 231.748 458.45 230.982C458.116 230.217 457.938 229.556 458.056 229.511C458.175 229.459 458.539 230.039 458.874 230.804C459.208 231.569 459.387 232.231 459.268 232.275Z" fill="#263238"/>
<path d="M457.946 241.468C457.834 241.409 458.094 240.658 458.54 239.781C458.979 238.904 459.424 238.243 459.543 238.303C459.655 238.362 459.395 239.113 458.949 239.989C458.51 240.866 458.065 241.528 457.946 241.468Z" fill="#263238"/>
<path d="M459.671 251.575C459.552 251.612 459.18 250.772 458.846 249.695C458.512 248.617 458.341 247.718 458.46 247.681C458.579 247.644 458.95 248.483 459.284 249.561C459.619 250.638 459.79 251.538 459.671 251.575Z" fill="#263238"/>
<path d="M449.644 255.758C449.562 255.662 450.06 255.142 450.743 254.592C451.434 254.049 452.051 253.685 452.133 253.789C452.215 253.886 451.717 254.406 451.026 254.956C450.335 255.498 449.718 255.862 449.636 255.758H449.644Z" fill="#263238"/>
<path d="M406.88 67.4961H90.5359C84.5564 67.4961 79.709 72.3435 79.709 78.323V280.185C79.709 286.165 84.5564 291.012 90.5359 291.012H406.88C412.859 291.012 417.706 286.165 417.706 280.185V78.323C417.706 72.3435 412.859 67.4961 406.88 67.4961Z" fill="#455A64"/>
<path d="M66.5055 276.574H432.703V282.905C432.703 290.203 426.781 296.133 419.476 296.133H79.7252C72.428 296.133 66.498 290.21 66.498 282.905V276.574H66.5055Z" fill="#455A64"/>
<path d="M215.391 274.479L219.931 281.709H283.874L288.095 274.479H215.391Z" fill="#263238"/>
<path d="M97.7815 82.7656H399.345C400.69 82.7656 401.775 83.858 401.775 85.1955V262.09C401.775 263.435 400.682 264.52 399.345 264.52H97.7815C96.4365 264.52 95.3516 263.427 95.3516 262.09V85.1955C95.3516 83.8505 96.4439 82.7656 97.7815 82.7656Z" fill="#EBEBEB"/>
<path d="M401.449 264.795H95.0254L95.3524 96.3496H401.449V264.795Z" fill="white"/>
<path d="M120.485 89.7885C120.485 91.141 119.393 92.2333 118.04 92.2333C116.688 92.2333 115.596 91.141 115.596 89.7885C115.596 88.4361 116.688 87.3438 118.04 87.3438C119.393 87.3438 120.485 88.4361 120.485 89.7885Z" fill="#263238"/>
<path d="M105.653 89.7885C105.653 91.141 104.561 92.2333 103.208 92.2333C101.856 92.2333 100.764 91.141 100.764 89.7885C100.764 88.4361 101.863 87.3438 103.208 87.3438C104.553 87.3438 105.653 88.4361 105.653 89.7885Z" fill="#263238"/>
<path d="M112.77 89.7885C112.77 91.141 111.678 92.2333 110.326 92.2333C108.973 92.2333 107.881 91.141 107.881 89.7885C107.881 88.4361 108.973 87.3438 110.326 87.3438C111.678 87.3438 112.77 88.4361 112.77 89.7885Z" fill="#263238"/>
<path d="M414.809 274.477C414.809 274.596 339.793 274.693 247.27 274.693C154.747 274.693 79.7168 274.596 79.7168 274.477C79.7168 274.358 154.718 274.262 247.27 274.262C339.823 274.262 414.809 274.358 414.809 274.477Z" fill="#263238"/>
<path d="M357.391 246.196H352.932C352.724 246.196 352.561 246.032 352.561 245.824C352.561 245.616 352.724 245.453 352.932 245.453H357.019V241.366C357.019 241.158 357.183 240.994 357.391 240.994C357.599 240.994 357.762 241.158 357.762 241.366V245.824C357.762 246.032 357.599 246.196 357.391 246.196Z" fill="#E0E0E0"/>
<path d="M344.268 246.196H335.604C335.395 246.196 335.232 246.033 335.232 245.825C335.232 245.617 335.395 245.453 335.604 245.453H344.268C344.476 245.453 344.64 245.617 344.64 245.825C344.64 246.033 344.476 246.196 344.268 246.196ZM326.932 246.196H318.267C318.059 246.196 317.896 246.033 317.896 245.825C317.896 245.617 318.059 245.453 318.267 245.453H326.932C327.14 245.453 327.303 245.617 327.303 245.825C327.303 246.033 327.14 246.196 326.932 246.196ZM309.595 246.196H300.923C300.715 246.196 300.552 246.033 300.552 245.825C300.552 245.617 300.715 245.453 300.923 245.453H309.595C309.803 245.453 309.967 245.617 309.967 245.825C309.967 246.033 309.803 246.196 309.595 246.196ZM292.259 246.196H283.594C283.386 246.196 283.223 246.033 283.223 245.825C283.223 245.617 283.386 245.453 283.594 245.453H292.259C292.467 245.453 292.63 245.617 292.63 245.825C292.63 246.033 292.467 246.196 292.259 246.196Z" fill="#E0E0E0"/>
<path d="M274.922 246.196H270.463C270.255 246.196 270.092 246.032 270.092 245.824V241.366C270.092 241.158 270.255 240.994 270.463 240.994C270.671 240.994 270.835 241.158 270.835 241.366V245.453H274.922C275.13 245.453 275.293 245.616 275.293 245.824C275.293 246.032 275.13 246.196 274.922 246.196Z" fill="#E0E0E0"/>
<path d="M270.463 232.447C270.255 232.447 270.092 232.284 270.092 232.076V222.787C270.092 222.579 270.255 222.415 270.463 222.415C270.671 222.415 270.835 222.579 270.835 222.787V232.076C270.835 232.284 270.671 232.447 270.463 232.447ZM270.463 213.862C270.255 213.862 270.092 213.699 270.092 213.491V204.202C270.092 203.994 270.255 203.831 270.463 203.831C270.671 203.831 270.835 203.994 270.835 204.202V213.491C270.835 213.699 270.671 213.862 270.463 213.862ZM270.463 195.278C270.255 195.278 270.092 195.114 270.092 194.906V185.61C270.092 185.402 270.255 185.238 270.463 185.238C270.671 185.238 270.835 185.402 270.835 185.61V194.906C270.835 195.114 270.671 195.278 270.463 195.278Z" fill="#E0E0E0"/>
<path d="M270.463 176.686C270.255 176.686 270.092 176.523 270.092 176.315V171.856C270.092 171.648 270.255 171.484 270.463 171.484H274.922C275.13 171.484 275.293 171.648 275.293 171.856C275.293 172.064 275.13 172.227 274.922 172.227H270.835V176.315C270.835 176.523 270.671 176.686 270.463 176.686Z" fill="#E0E0E0"/>
<path d="M344.268 172.227H335.603C335.395 172.227 335.232 172.064 335.232 171.856C335.232 171.648 335.395 171.484 335.603 171.484H344.268C344.476 171.484 344.639 171.648 344.639 171.856C344.639 172.064 344.476 172.227 344.268 172.227ZM326.931 172.227H318.267C318.059 172.227 317.895 172.064 317.895 171.856C317.895 171.648 318.059 171.484 318.267 171.484H326.931C327.139 171.484 327.303 171.648 327.303 171.856C327.303 172.064 327.139 172.227 326.931 172.227ZM309.595 172.227H300.93C300.722 172.227 300.559 172.064 300.559 171.856C300.559 171.648 300.722 171.484 300.93 171.484H309.595C309.803 171.484 309.966 171.648 309.966 171.856C309.966 172.064 309.803 172.227 309.595 172.227ZM292.258 172.227H283.586C283.378 172.227 283.215 172.064 283.215 171.856C283.215 171.648 283.378 171.484 283.586 171.484H292.258C292.466 171.484 292.63 171.648 292.63 171.856C292.63 172.064 292.466 172.227 292.258 172.227Z" fill="#E0E0E0"/>
<path d="M357.391 176.686C357.183 176.686 357.019 176.523 357.019 176.315V172.227H352.932C352.724 172.227 352.561 172.064 352.561 171.856C352.561 171.648 352.724 171.484 352.932 171.484H357.391C357.599 171.484 357.762 171.648 357.762 171.856V176.315C357.762 176.523 357.599 176.686 357.391 176.686Z" fill="#E0E0E0"/>
<path d="M357.391 232.448C357.183 232.448 357.02 232.284 357.02 232.076V222.78C357.02 222.572 357.183 222.408 357.391 222.408C357.599 222.408 357.763 222.572 357.763 222.78V232.076C357.763 232.284 357.599 232.448 357.391 232.448ZM357.391 213.863C357.183 213.863 357.02 213.699 357.02 213.491V204.202C357.02 203.994 357.183 203.831 357.391 203.831C357.599 203.831 357.763 203.994 357.763 204.202V213.491C357.763 213.699 357.599 213.863 357.391 213.863ZM357.391 195.278C357.183 195.278 357.02 195.114 357.02 194.906V185.618C357.02 185.41 357.183 185.246 357.391 185.246C357.599 185.246 357.763 185.41 357.763 185.618V194.906C357.763 195.114 357.599 195.278 357.391 195.278Z" fill="#E0E0E0"/>
<path d="M270.998 20.3223C269.111 24.0675 269.222 28.7267 271.28 32.353C272.284 34.1141 273.77 35.957 273.227 37.9114C272.692 39.8508 270.344 40.9135 269.876 42.8678C269.326 45.1714 271.615 47.1332 272.113 49.4368C272.581 51.5992 271.184 54.0217 269.059 54.7202C272.306 55.5079 275.776 55.389 278.964 54.371C279.269 53.026 279.581 51.6884 279.886 50.3434C279.492 51.785 280.495 53.3158 281.84 53.9622C283.177 54.6087 284.753 54.5642 286.239 54.3635C293.328 53.3826 299.867 48.8943 303.323 42.6375" fill="#263238"/>
<path d="M313.191 20.0856C312.069 18.9041 310.687 17.9752 309.699 16.6822C307.573 13.903 307.455 9.6971 304.631 7.63129C302.617 6.15996 299.868 6.27142 297.386 6.63554C294.904 6.99966 292.31 7.54212 289.947 6.72471C288.216 6.13023 286.789 4.85211 285.058 4.2502C282.591 3.38821 279.841 4.00498 277.404 4.98586C274.899 5.98904 272.492 7.40836 270.805 9.51132C269.118 11.6143 268.241 14.4678 268.977 17.0389C269.334 18.2947 270.055 19.4465 270.211 20.7395C270.381 22.1663 269.861 23.5856 269.802 25.0197C269.676 28.0516 271.905 31.0017 274.862 31.715L301.636 45.2097C305.76 44.8604 313.518 39.25 315.019 35.4008C316.52 31.5441 316.022 23.0803 313.199 20.093L313.191 20.0856Z" fill="#263238"/>
<path d="M274.023 28.779C272.426 23.5922 273.451 16.0943 278.734 14.675L296.108 12.5795C297.713 12.1485 299.37 13.0105 299.928 14.5635L313.125 51.6961C313.125 51.6961 313.578 52.2088 314.173 51.5846C314.329 51.4211 314.596 51.5549 314.559 51.7704C313.979 55.2183 314.656 63.2661 304.252 63.9572C301.926 64.1132 297.364 64.2915 296.063 62.1366L293.596 56.2141C292.4 53.16 291.924 51.9041 291.932 51.9339C291.932 51.9339 285.014 53.3532 280.466 45.4392C278.207 41.5008 275.807 34.538 274.031 28.779H274.023Z" fill="#AE7461"/>
<path d="M279.462 35.5113C279.655 36.0909 280.316 36.3955 280.926 36.2023C281.535 36.0017 281.877 35.3775 281.676 34.7979C281.483 34.2183 280.822 33.9136 280.212 34.1068C279.603 34.3074 279.261 34.9316 279.454 35.5113H279.462Z" fill="#263238"/>
<path d="M289.993 31.5445C290.186 32.1241 290.848 32.4287 291.457 32.2355C292.066 32.0349 292.408 31.4107 292.208 30.8311C292.014 30.2515 291.353 29.9468 290.744 30.14C290.134 30.3406 289.792 30.9648 289.986 31.5445H289.993Z" fill="#263238"/>
<path d="M276.489 32.094C276.69 32.2278 277.381 31.1503 278.689 30.749C279.989 30.3254 281.178 30.8084 281.267 30.5781C281.312 30.474 281.059 30.1917 280.539 29.9687C280.026 29.7458 279.224 29.6195 278.414 29.8796C277.604 30.1397 277.017 30.697 276.727 31.18C276.429 31.663 276.392 32.042 276.489 32.1014V32.094Z" fill="#263238"/>
<path d="M288.022 28.1931C288.253 28.2971 288.884 27.1527 290.229 26.5805C291.567 25.9935 292.853 26.313 292.927 26.0752C292.964 25.9638 292.682 25.7185 292.11 25.5699C291.552 25.4213 290.698 25.399 289.858 25.7631C289.026 26.1272 288.453 26.7514 288.193 27.2642C287.918 27.7769 287.911 28.1485 288.022 28.2005V28.1931Z" fill="#263238"/>
<path d="M287.51 37.8449C287.488 37.7781 286.715 37.9341 285.474 38.2314C285.162 38.3131 284.857 38.3651 284.731 38.1793C284.582 37.9936 284.582 37.622 284.597 37.2207C284.605 36.3959 284.612 35.5265 284.627 34.6199C284.634 30.9267 284.523 27.932 284.374 27.9395C284.226 27.9395 284.099 30.9416 284.092 34.6348C284.092 35.5413 284.099 36.4108 284.107 37.2356C284.122 37.6146 284.07 38.0753 284.396 38.4617C284.56 38.6549 284.842 38.7292 285.05 38.7069C285.266 38.6921 285.437 38.6326 285.585 38.5806C286.797 38.1868 287.54 37.9118 287.517 37.8449H287.51Z" fill="#263238"/>
<path d="M291.924 51.934C291.924 51.934 297.779 50.106 302.164 44.5625C302.164 44.5625 301.547 51.5773 292.741 54.0518L291.924 51.9415V51.934Z" fill="#6F4439"/>
<path d="M289.235 40.4911C289.599 39.8372 290.335 39.4062 291.123 39.369C291.673 39.3467 292.252 39.5251 292.639 39.9189C293.025 40.3053 293.181 40.9147 292.943 41.3754C292.676 41.8956 291.985 42.1036 291.375 42.0219C290.759 41.9402 290.194 41.6281 289.659 41.3085C289.51 41.2194 289.354 41.1302 289.258 40.9964C289.154 40.8627 289.109 40.6695 289.198 40.5357" fill="#6F4439"/>
<path d="M291.53 38.0169C291.336 38.0763 291.812 39.347 291.061 40.6549C290.318 41.9701 288.906 42.3491 288.958 42.5275C288.973 42.6166 289.352 42.6538 289.932 42.4532C290.504 42.2599 291.255 41.7621 291.715 40.9595C292.169 40.157 292.176 39.3099 292.027 38.7748C291.879 38.2249 291.611 37.9723 291.53 38.0094V38.0169Z" fill="#263238"/>
<path d="M285.854 24.5364C286.136 24.7593 287.117 23.9642 288.469 23.34C289.807 22.6935 291.041 22.4334 291.048 22.0693C291.048 21.8984 290.706 21.7349 290.126 21.7052C289.547 21.6754 288.744 21.8092 287.934 22.1882C287.132 22.5672 286.515 23.117 286.173 23.5778C285.824 24.0459 285.735 24.4175 285.861 24.5215L285.854 24.5364Z" fill="#263238"/>
<path d="M275.079 28.5286C275.421 28.7292 276.394 28.1644 277.657 27.8078C278.906 27.4213 280.043 27.3619 280.214 27.0052C280.288 26.8343 280.043 26.6114 279.508 26.4776C278.98 26.3439 278.148 26.3439 277.286 26.5965C276.424 26.8492 275.733 27.3024 275.369 27.7037C274.997 28.105 274.923 28.4245 275.079 28.5286Z" fill="#263238"/>
<path d="M299.97 12.1784C298.67 11.3833 297.028 11.4279 295.497 11.5468C288.891 12.0521 282.344 13.3451 276.035 15.3812C275.864 16.9417 277.321 18.2644 278.859 18.6211C280.39 18.9704 281.987 18.6434 283.563 18.5022C285.131 18.3684 286.862 18.4799 288.029 19.5277C289.27 20.6423 289.545 22.5224 290.726 23.689C292.762 25.7102 296.56 24.8705 298.581 26.8992C300.112 28.4374 299.955 30.9119 300.602 32.9777C301.33 35.3259 303.247 37.258 305.588 38.0233C307.438 38.6253 309.504 38.4692 311.288 37.6741C308.404 30.4884 305.521 23.2952 302.631 16.1094C302.029 14.6158 301.345 13.0181 299.97 12.171V12.1784Z" fill="#263238"/>
<path d="M322.496 23.124C320.913 22.6633 319.114 22.4626 318.007 21.2588C316.387 19.4977 316.922 16.2875 314.961 14.9128C313.17 13.6644 310.324 15.1209 308.585 13.7981C307.232 12.7652 307.478 11.1676 306.645 10.0975C305.813 9.02746 303.599 8.78224 302.432 9.51047L299.318 27.9095C300.611 32.9775 300.871 35.8755 303.16 38.1197C304.416 39.3458 305.813 40.4604 306.772 41.9318C307.73 43.4031 308.161 45.3797 307.299 46.918C313.266 44.6441 317.257 39.1006 320.883 33.8469C322.161 31.9966 323.439 30.1388 324.725 28.2885C325.126 27.7089 325.535 27.0996 325.609 26.4011C325.787 24.7662 324.078 23.5699 322.503 23.1091L322.496 23.124Z" fill="#263238"/>
<path d="M320.362 32.3915C320.362 32.3915 320.191 32.5624 319.805 32.8002C319.418 33.0306 318.801 33.3427 317.954 33.521C317.107 33.6994 316.007 33.7439 314.826 33.3724C313.644 33.0083 312.426 32.1388 311.608 30.8161C311.2 30.1548 310.895 29.382 310.769 28.5348C310.642 27.6877 310.731 26.796 310.835 25.9043C310.939 25.0126 311.066 24.0911 310.902 23.1771C310.739 22.2854 310.3 21.3417 309.453 20.9032C308.599 20.4574 307.551 20.7472 306.473 20.8141C305.931 20.8512 305.336 20.7918 304.824 20.4945C304.311 20.1973 303.954 19.6994 303.724 19.1867C303.241 18.1315 303.241 16.9648 302.981 15.9022C302.847 15.3672 302.646 14.847 302.305 14.4383C301.963 14.0296 301.472 13.7621 300.93 13.6729C299.823 13.4797 298.715 13.8884 297.653 14.2822C296.59 14.6984 295.409 14.9733 294.279 14.8173C293.15 14.6984 292.087 14.2599 291.218 13.5912C290.356 12.9149 289.746 12.0381 289.182 11.2058C288.617 10.3735 288.082 9.55614 287.406 8.90222C286.737 8.25573 285.927 7.80244 285.102 7.52006C283.423 6.97017 281.684 7.08163 280.279 7.61666C278.86 8.15169 277.79 9.09542 277.062 10.0392C276.319 10.9903 275.888 11.9563 275.635 12.7663C275.137 14.4011 275.234 15.3672 275.182 15.3672C275.182 15.3672 275.167 15.3077 275.167 15.1962C275.167 15.0774 275.152 14.9064 275.167 14.6835C275.182 14.2302 275.256 13.5614 275.494 12.7366C275.732 11.9118 276.155 10.916 276.898 9.92769C277.634 8.94681 278.719 7.95106 280.19 7.3863C281.647 6.82155 283.452 6.68779 285.206 7.24511C286.075 7.53492 286.93 8.0105 287.643 8.68672C288.357 9.36294 288.907 10.2026 289.471 11.0275C290.036 11.8523 290.631 12.692 291.448 13.3236C292.258 13.9404 293.269 14.3565 294.331 14.468C295.401 14.6092 296.479 14.3565 297.541 13.9478C298.597 13.5614 299.771 13.1081 301.012 13.3236C301.621 13.4202 302.208 13.7398 302.602 14.2154C303.003 14.6909 303.219 15.2631 303.352 15.8279C303.627 16.9574 303.627 18.0869 304.073 19.0529C304.289 19.5285 304.601 19.9521 305.024 20.2047C305.455 20.4574 305.968 20.5168 306.481 20.4797C306.994 20.4574 307.514 20.3608 308.049 20.3385C308.576 20.3088 309.149 20.3608 309.632 20.6209C310.612 21.141 311.073 22.1888 311.244 23.1399C311.415 24.1208 311.266 25.072 311.162 25.9563C311.051 26.848 310.954 27.7026 311.073 28.5051C311.192 29.3077 311.474 30.0507 311.853 30.6898C312.626 31.9679 313.786 32.8225 314.915 33.194C316.052 33.5805 317.122 33.5507 317.954 33.4021C319.641 33.0677 320.369 32.3469 320.392 32.4138L320.362 32.3915Z" fill="#455A64"/>
<path d="M323.418 18.9114C323.418 18.9114 323.596 18.9931 323.827 19.2904C324.05 19.5727 324.295 20.1078 324.243 20.8211C324.213 21.1704 324.109 21.5717 323.871 21.9358C323.634 22.2999 323.262 22.6343 322.794 22.8424C321.88 23.2882 320.542 23.2511 319.524 22.4485C319.019 22.0621 318.588 21.5271 318.291 20.9029C317.994 20.2712 317.86 19.5579 317.808 18.8222C317.681 17.3732 317.949 15.7755 317.288 14.319C316.976 13.6131 316.448 12.9294 315.697 12.6694C314.939 12.3944 314.092 12.6471 313.297 13.0112C312.495 13.3604 311.685 13.8658 310.681 13.9326C310.191 13.9624 309.671 13.836 309.255 13.5611C308.831 13.2936 308.504 12.9146 308.244 12.4985C307.717 11.6588 307.531 10.715 307.256 9.86046C307.003 8.99104 306.58 8.22565 306.015 7.57172C304.885 6.2713 303.273 5.49105 301.69 5.34986C300.092 5.19381 298.606 5.79572 297.269 6.33818C295.924 6.88807 294.623 7.40824 293.352 7.48998C292.097 7.60145 290.952 7.40824 290.016 7.10357C289.072 6.7989 288.322 6.36791 287.757 5.97406C286.627 5.15666 286.219 4.48787 286.219 4.48787C286.256 4.45072 286.702 5.08978 287.839 5.85517C288.411 6.22672 289.147 6.63542 290.083 6.91037C291.004 7.19274 292.119 7.35622 293.338 7.23733C294.556 7.14073 295.82 6.62799 297.157 6.06324C298.487 5.51334 300.018 4.86685 301.72 5.0229C303.392 5.15666 305.086 5.97406 306.282 7.34136C306.877 8.02501 307.338 8.86471 307.598 9.75643C307.88 10.6333 308.066 11.5473 308.549 12.3127C309.01 13.0781 309.79 13.6503 310.659 13.5759C311.521 13.5239 312.324 13.0483 313.141 12.6917C313.944 12.3201 314.91 12.0229 315.809 12.3498C316.693 12.6619 317.265 13.4348 317.592 14.1927C317.934 14.9655 318.046 15.7978 318.068 16.5706C318.09 17.3509 318.068 18.1014 318.112 18.8148C318.157 19.5281 318.283 20.2044 318.551 20.7988C318.818 21.3859 319.212 21.8912 319.68 22.2627C320.617 23.0207 321.843 23.0727 322.705 22.6789C323.143 22.4931 323.492 22.1959 323.723 21.8615C323.953 21.5271 324.057 21.163 324.102 20.8286C324.169 20.1598 323.961 19.6396 323.767 19.3498C323.567 19.0526 323.403 18.9485 323.418 18.9262V18.9114Z" fill="#263238"/>
<path d="M264.333 51.0438C264.385 51.0141 264.281 51.7423 265.054 52.53C265.433 52.8941 266.057 53.2583 266.815 53.1691C267.558 53.0873 268.361 52.4929 268.658 51.5937C268.807 51.1479 268.777 50.6426 268.591 50.1595C268.405 49.6765 268.078 49.2307 267.692 48.8145C266.934 47.9897 265.812 47.2317 265.314 45.9313C264.809 44.6755 264.846 43.1299 265.515 41.7997C265.842 41.1384 266.302 40.529 266.867 40.0163C267.432 39.4961 268.108 39.1097 268.784 38.753C269.453 38.3889 270.122 38.0545 270.679 37.6012C271.237 37.1554 271.653 36.5757 271.779 35.9144C271.913 35.253 271.779 34.5768 271.541 33.96C271.303 33.3433 270.954 32.7859 270.56 32.2658C269.788 31.2329 268.918 30.2891 268.472 29.1671C268.019 28.0524 267.982 26.8932 268.197 25.9049C268.405 24.9017 268.911 24.1066 269.334 23.4452C269.765 22.7839 270.129 22.2117 270.352 21.7064C270.82 20.6958 270.679 20.0493 270.731 20.0567C270.731 20.0567 270.746 20.0939 270.754 20.1682C270.754 20.2425 270.783 20.3539 270.768 20.5026C270.768 20.7998 270.702 21.2382 270.486 21.7584C270.278 22.286 269.921 22.873 269.513 23.5493C269.104 24.2255 268.636 24.9983 268.457 25.9495C268.272 26.8932 268.324 28.0004 268.762 29.0407C269.193 30.0959 270.04 31.0099 270.843 32.0503C271.244 32.5705 271.623 33.1575 271.876 33.8189C272.128 34.4728 272.284 35.2159 272.136 35.9738C271.995 36.7318 271.511 37.4006 270.91 37.8762C270.308 38.3592 269.624 38.7084 268.955 39.0651C268.286 39.4218 267.64 39.7859 267.112 40.2764C266.585 40.7594 266.146 41.3316 265.834 41.9483C265.21 43.1819 265.165 44.6235 265.626 45.7976C266.065 47.0014 267.12 47.737 267.915 48.599C268.316 49.0375 268.658 49.5131 268.859 50.0481C269.059 50.5757 269.089 51.1627 268.911 51.6606C268.561 52.6638 267.662 53.2806 266.837 53.3623C265.99 53.444 265.329 53.0205 264.95 52.6192C264.556 52.2031 264.407 51.7721 264.348 51.4823C264.296 51.185 264.333 51.0364 264.333 51.0364V51.0438Z" fill="#263238"/>
<path d="M352.982 122.707H268.633C266.75 122.707 265.223 124.234 265.223 126.118V192.499C265.223 194.382 266.75 195.909 268.633 195.909H352.982C354.866 195.909 356.393 194.382 356.393 192.499V126.118C356.393 124.234 354.866 122.707 352.982 122.707Z" fill="#F5F5F5"/>
<path d="M352.981 195.91C352.981 195.91 353.271 195.917 353.799 195.784C354.319 195.65 355.122 195.301 355.746 194.424C356.05 193.993 356.281 193.421 356.333 192.767C356.355 192.113 356.333 191.377 356.333 190.597C356.333 189.021 356.325 187.208 356.318 185.165C356.303 176.991 356.281 165.168 356.258 150.566C356.258 143.262 356.244 135.258 356.236 126.676C356.236 126.133 356.251 125.62 356.08 125.123C355.917 124.632 355.642 124.179 355.278 123.815C354.906 123.451 354.445 123.176 353.947 123.02C353.442 122.856 352.915 122.871 352.35 122.878C350.128 122.878 347.876 122.878 345.588 122.878C341.01 122.878 336.306 122.878 331.476 122.886C312.163 122.886 290.933 122.893 268.647 122.901C267.317 122.878 266.054 123.778 265.623 125.011C265.37 125.62 265.43 126.297 265.422 126.995V129.061C265.422 131.81 265.422 134.545 265.422 137.257C265.422 142.682 265.422 148.032 265.422 153.286C265.422 163.793 265.415 173.937 265.407 183.589C265.407 186.004 265.407 188.39 265.407 190.738C265.407 191.325 265.407 191.912 265.407 192.499C265.415 193.056 265.556 193.606 265.831 194.082C266.374 195.048 267.421 195.687 268.514 195.717C273.084 195.717 277.527 195.732 281.815 195.732C290.405 195.739 298.401 195.746 305.706 195.754C320.307 195.776 332.123 195.798 340.304 195.813C344.384 195.828 347.549 195.843 349.712 195.851C350.782 195.858 351.599 195.865 352.157 195.873C352.706 195.873 352.989 195.895 352.989 195.895C352.989 195.895 352.706 195.91 352.157 195.917C351.599 195.917 350.782 195.925 349.712 195.94C347.557 195.947 344.384 195.962 340.304 195.977C332.13 195.992 320.307 196.014 305.706 196.036C298.401 196.036 290.398 196.051 281.815 196.059C277.52 196.059 273.076 196.059 268.499 196.059C267.295 196.029 266.128 195.315 265.534 194.253C265.229 193.725 265.073 193.108 265.066 192.499C265.066 191.912 265.066 191.325 265.066 190.738C265.066 188.382 265.066 185.997 265.066 183.589C265.066 173.929 265.066 163.793 265.051 153.286C265.051 148.032 265.051 142.682 265.051 137.257C265.051 134.545 265.051 131.81 265.051 129.061V126.995C265.058 126.326 264.991 125.576 265.274 124.877C265.764 123.488 267.176 122.485 268.662 122.514C290.948 122.514 312.178 122.522 331.491 122.529C336.321 122.529 341.025 122.529 345.602 122.537C347.891 122.537 350.143 122.537 352.365 122.537C352.907 122.537 353.502 122.514 354.059 122.7C354.609 122.878 355.114 123.183 355.523 123.584C355.924 123.993 356.229 124.491 356.407 125.026C356.593 125.568 356.585 126.155 356.578 126.676C356.571 135.266 356.563 143.262 356.556 150.566C356.533 165.168 356.511 176.983 356.496 185.165C356.496 187.208 356.481 189.021 356.481 190.597C356.474 191.385 356.489 192.105 356.459 192.774C356.4 193.443 356.154 194.03 355.842 194.468C355.196 195.36 354.371 195.702 353.843 195.821C353.301 195.94 353.011 195.903 353.011 195.903L352.981 195.91Z" fill="#263238"/>
<path d="M269.627 128.437L269.365 190.887L352.45 191.235L352.712 128.785L269.627 128.437Z" fill="#455A64"/>
<g opacity="0.2">
<path d="M269.361 190.886L298.543 152.193L316.422 176.552L328.668 163.622L352.447 191.236L269.361 190.886Z" fill="black"/>
</g>
<g opacity="0.2">
<path d="M324.172 147.544C324.157 151.155 321.214 154.075 317.603 154.061C313.991 154.046 311.071 151.103 311.086 147.492C311.101 143.88 314.044 140.96 317.655 140.975C321.266 140.99 324.187 143.932 324.172 147.544Z" fill="black"/>
</g>
<path d="M270.396 68.2156C270.396 68.2156 269.942 67.3016 272.536 64.3887C275.129 61.4757 293.053 54.8473 293.053 54.8473C293.053 54.8473 300.023 63.274 306.495 57.4853C311.214 53.2719 311.95 48.1669 311.95 48.1669C311.95 48.1669 327.77 47.2826 328.105 48.3155L332.34 68.2082L324.909 68.2528L270.396 68.2156Z" fill="#FF725E"/>
<path d="M308.107 113.716L335.647 86.2066L332.139 71.1589L346.957 66.7969C346.957 66.7969 351.341 87.8042 350.761 91.5048C349.624 98.6683 315.828 119.126 315.828 119.126L308.115 113.709L308.107 113.716Z" fill="#AE7461"/>
<path d="M327.348 48.0192C327.348 48.0192 333.991 48.413 339.386 53.9639C345.093 59.8418 351.922 75.2536 351.922 75.2536L332.572 79.9649L327.348 48.0117V48.0192Z" fill="#FF725E"/>
<path d="M304.594 116.724L296.865 121.547C296.865 121.547 292.972 128.034 292.414 129.662C291.864 131.289 291.314 135.361 291.314 135.361C291.314 135.361 293.001 136.899 293.685 134.529L294.48 132.708L293.811 136.929C293.811 136.929 295.52 138.252 296.353 136.008C297.185 133.764 297.556 131.623 297.556 131.623L300.202 127.99L297.534 136.669C297.534 136.669 297.029 138.415 298.582 138.267C299.199 138.207 300.573 135.146 300.573 135.146C300.573 135.146 301.703 136.61 302.639 135.294C303.598 133.949 307.239 128.792 307.239 128.792C307.239 128.792 312.173 122.699 312.188 122.535C312.188 122.506 315.814 119.132 315.814 119.132L308.101 113.715L304.765 116.553C304.72 116.62 304.66 116.68 304.586 116.724H304.594Z" fill="#AE7461"/>
<path d="M293.835 136.775C293.835 136.775 293.887 136.604 293.947 136.284C294.013 135.942 294.095 135.489 294.199 134.947C294.303 134.367 294.422 133.698 294.548 132.955C294.615 132.576 294.682 132.182 294.749 131.781C294.823 131.38 294.965 130.979 295.128 130.577C295.812 128.972 296.718 127.642 297.372 126.706C297.699 126.238 297.982 125.866 298.175 125.606C298.368 125.353 298.472 125.205 298.465 125.197C298.457 125.197 298.338 125.324 298.123 125.569C297.915 125.814 297.617 126.178 297.276 126.639C296.592 127.568 295.671 128.883 294.972 130.518C294.801 130.927 294.66 131.343 294.586 131.759C294.519 132.168 294.452 132.561 294.392 132.94C294.273 133.683 294.169 134.36 294.073 134.939C293.991 135.489 293.924 135.942 293.872 136.292C293.828 136.611 293.813 136.79 293.82 136.79L293.835 136.775Z" fill="#6F4439"/>
<path d="M304.163 127.679C304.163 127.679 304.088 127.761 303.984 127.932C303.88 128.102 303.732 128.348 303.546 128.652C303.182 129.269 302.684 130.124 302.142 131.09V131.097C302.119 131.149 302.097 131.209 302.075 131.268C301.644 132.331 301.257 133.297 300.99 133.995C300.856 134.345 300.752 134.634 300.678 134.828C300.611 135.028 300.574 135.14 300.581 135.14C300.588 135.14 300.648 135.043 300.737 134.85C300.826 134.657 300.945 134.382 301.094 134.032C301.391 133.341 301.792 132.383 302.223 131.32C302.246 131.261 302.268 131.201 302.29 131.149C302.833 130.198 303.316 129.329 303.657 128.697C303.828 128.385 303.962 128.125 304.051 127.946C304.14 127.768 304.185 127.664 304.178 127.664L304.163 127.679Z" fill="#6F4439"/>
<path d="M260.803 66.3504C260.84 66.4322 260.87 66.5065 260.9 66.5882C261.034 66.9598 261.108 67.3462 261.138 67.74C261.153 67.9184 261.123 68.119 261.16 68.2973C261.19 68.4162 261.264 68.5128 261.316 68.6243C261.613 69.3302 261.546 70.1699 261.517 70.9205C261.487 71.7676 261.502 72.6593 261.94 73.3801C262.379 74.1009 263.404 74.5245 264.103 74.0489C263.999 74.5765 264.407 75.119 264.927 75.2527C265.448 75.3865 266.012 75.171 266.399 74.7994C266.785 74.4205 267.001 73.9077 267.134 73.3875C267.097 74.0192 267.721 74.5616 268.353 74.5691C268.985 74.5765 269.564 74.1604 269.899 73.6253C270.233 73.0903 270.359 72.4512 270.434 71.827C270.508 71.2028 270.649 70.0288 270.813 69.412C270.813 69.412 271.608 69.5383 271.965 69.5755C272.455 69.6201 272.069 69.5829 272.069 69.5829C272.336 69.3228 272.537 68.8695 272.827 68.2676C273.332 67.2273 273.718 66.5659 274.105 65.6222C274.394 64.9163 274.58 64.2103 274.142 63.7496C273.087 62.6424 271.036 64.894 271.036 64.894C270.746 64.1137 268.353 63.9799 267.892 65.0277C267.707 64.4555 267.773 64.1211 267.313 63.7347C266.845 63.3483 266.206 63.1477 265.619 63.3112C265.031 63.4672 264.556 64.032 264.593 64.6413C264.103 63.8462 263.085 63.4226 262.171 63.6307C261.621 63.757 261.138 64.1063 260.818 64.5596C260.655 64.7899 260.543 65.0426 260.476 65.3175C260.454 65.4141 260.409 65.5256 260.417 65.6296C260.417 65.6816 260.439 65.7262 260.469 65.7708C260.573 65.9714 260.714 66.1498 260.811 66.3579L260.803 66.3504Z" fill="#AE7461"/>
<path d="M258.276 64.9545C257.756 64.9396 257.191 65.0437 256.842 65.4301C256.433 65.8908 256.344 66.8048 256.396 67.4216C257.117 67.5553 257.489 67.585 258.209 67.7188C258.358 67.7485 258.492 67.7114 258.618 67.8005C258.952 68.0383 258.9 68.8334 259.034 69.2199C259.265 69.8886 260.127 70.2156 260.788 69.9704C261.449 69.7252 261.88 69.0192 261.91 68.3133C261.947 67.6073 261.635 66.9163 261.174 66.3738C260.461 65.5267 259.383 64.9991 258.276 64.9619V64.9545Z" fill="#AE7461"/>
<path d="M264.45 64.4629C264.584 64.4629 264.584 66.6328 264.45 69.2856C264.316 71.9459 264.093 74.0934 263.96 74.086C263.826 74.086 263.826 71.9236 263.96 69.2633C264.093 66.6105 264.316 64.4555 264.45 64.4629Z" fill="#6F4439"/>
<path d="M267.905 64.9375C268.032 64.9375 268.21 66.8993 268.002 69.3143C267.794 71.7294 267.289 73.6392 267.162 73.6094C267.021 73.5797 267.311 71.6551 267.512 69.2698C267.72 66.8844 267.764 64.9375 267.905 64.9375Z" fill="#6F4439"/>
<path d="M271.146 64.9375C271.287 64.9375 271.339 66.5723 271.087 68.5564C270.834 70.533 270.529 72.1158 270.403 72.101C270.262 72.0861 270.351 70.4661 270.604 68.4969C270.856 66.5352 271.012 64.9375 271.146 64.9375Z" fill="#6F4439"/>
<path d="M259.317 65.3544C259.317 65.2949 259.666 65.2206 260.164 65.4435C260.654 65.659 261.219 66.2312 261.494 66.9966C261.761 67.762 261.843 68.4233 261.821 68.9807C261.761 69.5751 261.33 69.7535 261.315 69.6717C261.278 69.6197 261.509 69.4117 261.472 68.9658C261.412 68.5348 261.263 67.8214 261.033 67.1601C260.788 66.4839 260.372 65.9934 259.993 65.7333C259.614 65.4658 259.309 65.4138 259.317 65.3395V65.3544Z" fill="#6F4439"/>
<path d="M247.764 181.805H142.898C139.349 181.805 136.471 184.683 136.471 188.232V240.821C136.471 244.371 139.349 247.249 142.898 247.249H247.764C251.314 247.249 254.192 244.371 254.192 240.821V188.232C254.192 184.683 251.314 181.805 247.764 181.805Z" fill="white"/>
<path d="M247.765 247.249C247.765 247.249 248.078 247.249 248.679 247.16C249.274 247.071 250.173 246.856 251.169 246.224C252.157 245.607 253.242 244.507 253.799 242.873C254.089 242.055 254.163 241.134 254.134 240.138C254.134 239.142 254.134 238.08 254.126 236.958C254.111 227.959 254.089 214.954 254.067 198.889C254.067 196.882 254.067 194.824 254.067 192.721C254.067 191.666 254.067 190.603 254.067 189.533C254.067 188.456 254.111 187.378 253.777 186.353C253.138 184.309 251.355 182.593 249.162 182.124C248.613 182.006 248.063 181.961 247.49 181.968C246.918 181.968 246.339 181.968 245.759 181.968C244.6 181.968 243.426 181.968 242.244 181.968C232.792 181.968 222.693 181.983 212.067 181.983C190.815 181.983 167.452 181.991 142.929 181.998C141.436 181.998 139.964 182.548 138.85 183.521C137.72 184.48 136.97 185.855 136.762 187.311C136.65 188.032 136.695 188.79 136.687 189.548C136.687 190.306 136.687 191.056 136.687 191.807C136.687 193.308 136.687 194.809 136.687 196.303C136.687 202.277 136.687 208.163 136.687 213.944C136.687 219.725 136.687 225.41 136.687 230.968C136.687 233.747 136.687 236.504 136.687 239.224C136.695 239.9 136.665 240.599 136.71 241.245C136.762 241.899 136.888 242.553 137.141 243.155C137.631 244.366 138.501 245.414 139.593 246.105C140.685 246.804 141.971 247.131 143.264 247.086C144.579 247.086 145.879 247.086 147.172 247.086C149.758 247.086 152.315 247.086 154.834 247.086C159.865 247.086 164.754 247.086 169.48 247.093C178.932 247.101 187.731 247.108 195.771 247.116C211.837 247.138 224.841 247.16 233.84 247.175C238.328 247.19 241.813 247.205 244.191 247.212C245.365 247.22 246.272 247.227 246.881 247.235C247.49 247.235 247.795 247.257 247.795 247.257C247.795 247.257 247.483 247.272 246.881 247.279C246.264 247.279 245.365 247.287 244.191 247.301C241.821 247.309 238.328 247.324 233.84 247.339C224.841 247.353 211.837 247.376 195.771 247.398C187.731 247.398 178.932 247.413 169.48 247.42C164.754 247.42 159.865 247.42 154.834 247.428C152.315 247.428 149.766 247.428 147.172 247.428C145.879 247.428 144.572 247.428 143.264 247.428C141.934 247.48 140.544 247.138 139.4 246.395C138.24 245.667 137.319 244.567 136.806 243.281C136.539 242.642 136.405 241.951 136.346 241.26C136.301 240.562 136.331 239.9 136.323 239.217C136.323 236.497 136.323 233.74 136.323 230.961C136.323 225.395 136.323 219.718 136.323 213.936C136.323 208.155 136.323 202.27 136.323 196.295C136.323 194.802 136.323 193.301 136.323 191.8C136.323 191.049 136.323 190.291 136.323 189.541C136.331 188.79 136.286 188.032 136.405 187.252C136.628 185.706 137.423 184.242 138.619 183.232C139.808 182.199 141.369 181.619 142.952 181.619C167.474 181.619 190.837 181.627 212.089 181.634C222.716 181.634 232.814 181.649 242.267 181.649C243.448 181.649 244.622 181.649 245.781 181.649C246.361 181.649 246.941 181.649 247.513 181.649C248.085 181.649 248.687 181.686 249.252 181.812C251.555 182.31 253.413 184.109 254.082 186.256C254.438 187.334 254.379 188.47 254.379 189.526C254.379 190.603 254.379 191.666 254.379 192.714C254.379 194.817 254.379 196.875 254.379 198.881C254.357 214.947 254.334 227.959 254.32 236.95C254.32 238.072 254.32 239.135 254.312 240.131C254.342 241.119 254.253 242.085 253.955 242.902C253.383 244.567 252.269 245.667 251.258 246.283C250.24 246.908 249.333 247.116 248.731 247.19C248.434 247.242 248.196 247.235 248.048 247.242C247.892 247.242 247.817 247.242 247.817 247.242L247.765 247.249Z" fill="#263238"/>
<path d="M166.514 192.861H149.029V196.161H166.514V192.861Z" fill="#FF725E"/>
<path d="M166.514 233.279H149.029V236.579H166.514V233.279Z" fill="#FF725E"/>
<path d="M179.132 201.043H149.029V204.342H179.132V201.043Z" fill="#E0E0E0"/>
<path d="M197.776 201.043H184.467V204.342H197.776V201.043Z" fill="#FF725E"/>
<path d="M237.42 201.043H228.674V204.342H237.42V201.043Z" fill="#263238"/>
<path d="M225.621 201.043H202.451V204.342H225.621V201.043Z" fill="#455A64"/>
<path d="M207.319 212.146H237.422V208.847H207.319V212.146Z" fill="#E0E0E0"/>
<path d="M188.674 212.146H201.982V208.847H188.674V212.146Z" fill="#455A64"/>
<path d="M149.029 212.146H157.775V208.847H149.029V212.146Z" fill="#263238"/>
<path d="M160.83 212.146H184V208.847H160.83V212.146Z" fill="#FF725E"/>
<path d="M179.132 216.85H149.029V220.149H179.132V216.85Z" fill="#E0E0E0"/>
<path d="M197.776 216.85H184.467V220.149H197.776V216.85Z" fill="#263238"/>
<path d="M237.42 216.85H228.674V220.149H237.42V216.85Z" fill="#263238"/>
<path d="M186.377 225.01H177.631V228.309H186.377V225.01Z" fill="#FF725E"/>
<path d="M225.621 216.85H202.451V220.149H225.621V216.85Z" fill="#455A64"/>
<path d="M171.566 225.01H148.396V228.309H171.566V225.01Z" fill="#455A64"/>
<path d="M358.68 204.67H322.023C318.699 204.67 316.004 207.365 316.004 210.689V245.934C316.004 249.258 318.699 251.953 322.023 251.953H358.68C362.004 251.953 364.699 249.258 364.699 245.934V210.689C364.699 207.365 362.004 204.67 358.68 204.67Z" fill="#FAFAFA"/>
<path d="M358.68 251.953C358.68 251.915 359.334 251.982 360.486 251.633C361.058 251.44 361.742 251.12 362.418 250.57C363.094 250.021 363.756 249.211 364.187 248.163C364.402 247.635 364.536 247.048 364.588 246.424C364.632 245.8 364.595 245.124 364.603 244.425C364.603 243.028 364.595 241.505 364.588 239.877C364.58 236.615 364.573 232.892 364.558 228.79C364.558 224.681 364.543 220.178 364.536 215.355C364.536 214.144 364.536 212.918 364.536 211.669C364.536 211.045 364.558 210.414 364.461 209.812C364.372 209.202 364.187 208.6 363.897 208.05C363.332 206.936 362.388 205.992 361.229 205.435C360.649 205.16 360.025 204.959 359.379 204.892C358.74 204.825 358.056 204.855 357.38 204.848C346.516 204.848 334.574 204.855 322.038 204.863C320.515 204.863 319.021 205.479 317.958 206.535C316.881 207.582 316.249 209.046 316.22 210.525C316.22 213.579 316.212 216.581 316.205 219.539C316.205 225.454 316.197 231.153 316.19 236.585C316.19 239.305 316.19 241.951 316.182 244.522C316.19 245.161 316.16 245.815 316.205 246.424C316.264 247.041 316.398 247.635 316.628 248.2C317.104 249.315 317.914 250.273 318.91 250.89C319.905 251.529 321.065 251.819 322.209 251.804C323.376 251.804 324.52 251.804 325.642 251.804C327.886 251.804 330.034 251.811 332.092 251.819C340.296 251.841 346.947 251.863 351.554 251.878C353.843 251.893 355.619 251.908 356.845 251.915C357.439 251.923 357.9 251.93 358.219 251.938C358.532 251.938 358.688 251.96 358.688 251.96C358.688 251.96 358.532 251.975 358.219 251.982C357.892 251.982 357.439 251.99 356.845 252.005C355.619 252.012 353.843 252.027 351.554 252.042C346.947 252.057 340.303 252.079 332.092 252.101C330.041 252.101 327.886 252.109 325.642 252.116C324.52 252.116 323.376 252.116 322.209 252.116C321.027 252.138 319.786 251.834 318.739 251.165C317.684 250.511 316.829 249.508 316.324 248.326C316.078 247.732 315.93 247.1 315.87 246.446C315.818 245.785 315.856 245.168 315.841 244.514C315.841 241.943 315.841 239.29 315.833 236.578C315.833 231.146 315.833 225.446 315.818 219.531C315.818 216.574 315.818 213.564 315.818 210.51C315.848 208.935 316.524 207.367 317.676 206.252C318.813 205.13 320.411 204.469 322.031 204.469C334.567 204.469 346.508 204.476 357.372 204.484C358.049 204.484 358.717 204.461 359.416 204.536C360.107 204.61 360.768 204.818 361.378 205.115C362.611 205.702 363.599 206.705 364.194 207.887C364.833 209.054 364.907 210.443 364.863 211.662C364.863 212.91 364.863 214.136 364.863 215.348C364.855 220.178 364.848 224.674 364.84 228.783C364.833 232.892 364.818 236.608 364.811 239.87C364.811 241.505 364.803 243.021 364.796 244.418C364.781 245.116 364.811 245.777 364.759 246.431C364.692 247.07 364.551 247.68 364.328 248.215C363.874 249.292 363.191 250.102 362.492 250.66C361.786 251.21 361.088 251.529 360.508 251.707C359.921 251.871 359.46 251.93 359.148 251.945C358.836 251.953 358.68 251.945 358.68 251.945V251.953Z" fill="#263238"/>
<path d="M326.771 215.808H353.322L353.367 224.703H352.096C351.68 221.523 350.491 219.368 348.522 218.246C347.414 217.629 345.765 217.287 343.565 217.228V240.457C343.565 242.077 343.848 243.154 344.412 243.689C344.977 244.224 346.159 244.484 347.957 244.484V245.606H332.24V244.484C333.964 244.484 335.109 244.217 335.673 243.674C336.238 243.139 336.521 242.062 336.521 240.449V217.22C334.366 217.28 332.716 217.614 331.572 218.238C329.461 219.39 328.272 221.545 327.997 224.696H326.727L326.771 215.801V215.808Z" fill="#263238"/>
<path d="M372.947 133.153V222.065C372.947 224.703 375.087 226.843 377.725 226.843H435.048C437.686 226.843 439.826 224.703 439.826 222.065V133.153C439.826 130.515 437.686 128.375 435.048 128.375H377.725C375.087 128.375 372.947 130.515 372.947 133.153Z" fill="white"/>
<path d="M372.947 133.153C372.947 133.153 372.947 133.086 372.947 132.945C372.947 132.803 372.955 132.595 373.007 132.32C373.096 131.778 373.319 130.953 374.003 130.098C374.671 129.266 375.86 128.412 377.473 128.322C379.048 128.293 380.854 128.3 382.897 128.293C391.064 128.278 402.872 128.256 417.451 128.233C421.1 128.233 424.919 128.226 428.902 128.218C430.894 128.218 432.923 128.218 434.996 128.218C437.143 128.159 439.284 129.705 439.819 131.889C439.967 132.417 440.004 132.997 439.989 133.532C439.989 134.074 439.989 134.617 439.989 135.159C439.989 136.251 439.989 137.351 439.989 138.458C439.989 140.673 439.989 142.924 439.989 145.213C439.989 149.783 439.989 154.487 439.997 159.31C439.997 178.6 440.004 199.808 440.012 222.072C440.019 223.521 439.35 224.947 438.243 225.876C437.701 226.344 437.039 226.679 436.348 226.872C435.657 227.073 434.922 227.058 434.245 227.05C431.496 227.05 428.769 227.05 426.056 227.05C420.632 227.05 415.296 227.05 410.043 227.05C399.543 227.05 389.422 227.043 379.769 227.035C379.167 227.035 378.565 227.035 377.963 227.035C377.361 227.035 376.722 226.976 376.143 226.783C374.969 226.396 373.965 225.557 373.378 224.487C373.081 223.952 372.888 223.365 372.806 222.77C372.724 222.161 372.762 221.581 372.754 221.001C372.754 219.842 372.754 218.69 372.754 217.546C372.754 212.976 372.754 208.54 372.762 204.252C372.769 195.677 372.776 187.681 372.784 180.384C372.806 165.797 372.828 153.996 372.843 145.83C372.858 141.758 372.873 138.592 372.88 136.437C372.888 135.367 372.895 134.55 372.903 133.992C372.903 133.442 372.925 133.16 372.925 133.16C372.925 133.16 372.94 133.442 372.947 133.992C372.947 134.55 372.955 135.367 372.97 136.437C372.977 138.592 372.992 141.758 373.007 145.83C373.022 153.996 373.044 165.797 373.066 180.384C373.066 187.681 373.081 195.669 373.088 204.252C373.088 208.54 373.088 212.976 373.096 217.546C373.096 218.69 373.096 219.842 373.096 221.001C373.096 221.581 373.074 222.168 373.148 222.718C373.222 223.275 373.408 223.818 373.683 224.316C374.225 225.311 375.169 226.092 376.254 226.448C376.804 226.634 377.369 226.694 377.963 226.686C378.565 226.686 379.16 226.686 379.769 226.686C389.414 226.686 399.543 226.686 410.043 226.671C415.289 226.671 420.632 226.671 426.056 226.671C428.769 226.671 431.496 226.671 434.245 226.671C434.944 226.671 435.605 226.686 436.244 226.5C436.883 226.322 437.485 226.017 437.991 225.586C439.009 224.732 439.625 223.417 439.618 222.079C439.618 199.816 439.625 178.608 439.633 159.317C439.633 154.494 439.633 149.791 439.64 145.221C439.64 142.939 439.64 140.688 439.64 138.466C439.64 137.359 439.64 136.259 439.64 135.166C439.64 134.624 439.64 134.081 439.64 133.539C439.655 132.989 439.625 132.484 439.484 131.979C438.986 129.935 436.987 128.486 434.966 128.538C432.9 128.538 430.864 128.538 428.873 128.538C424.89 128.538 421.07 128.531 417.422 128.523C402.835 128.501 391.034 128.479 382.868 128.464C380.832 128.464 379.011 128.441 377.45 128.464C375.875 128.531 374.701 129.363 374.032 130.173C373.356 131.005 373.118 131.815 373.014 132.35C372.91 132.893 372.94 133.175 372.918 133.175L372.947 133.153Z" fill="#263238"/>
<path d="M391.669 145.465H391.453C390.448 145.465 389.633 146.28 389.633 147.285V208.851C389.633 209.856 390.448 210.672 391.453 210.672H391.669C392.674 210.672 393.489 209.856 393.489 208.851V147.285C393.489 146.28 392.674 145.465 391.669 145.465Z" fill="#E0E0E0"/>
<path d="M391.661 210.673C391.639 210.628 392.204 210.747 392.872 210.145C393.668 209.543 393.348 208.087 393.393 206.407C393.378 202.967 393.348 198.033 393.318 191.939C393.303 185.823 393.289 178.556 393.274 170.486C393.274 166.451 393.266 162.208 393.259 157.816C393.259 155.617 393.259 153.387 393.259 151.113C393.259 149.976 393.259 148.84 393.259 147.688C393.259 147.391 393.274 147.123 393.207 146.885C393.147 146.64 393.021 146.41 392.85 146.224C392.501 145.83 392.01 145.652 391.453 145.689C390.94 145.689 390.435 145.949 390.145 146.365C389.997 146.573 389.907 146.818 389.87 147.064C389.841 147.301 389.855 147.613 389.855 147.896C389.855 149.048 389.855 150.192 389.855 151.322C389.855 153.588 389.855 155.825 389.855 158.024C389.855 162.416 389.848 166.659 389.841 170.694C389.826 178.764 389.803 186.039 389.796 192.147C389.766 198.241 389.744 203.175 389.722 206.615C389.722 207.462 389.707 208.22 389.707 208.882C389.707 209.528 390.063 210.011 390.405 210.271C390.755 210.539 391.104 210.613 391.327 210.635C391.557 210.658 391.676 210.658 391.676 210.665C391.676 210.665 391.557 210.687 391.327 210.68C391.096 210.673 390.732 210.613 390.353 210.338C389.982 210.078 389.595 209.573 389.573 208.882C389.573 208.22 389.558 207.462 389.551 206.608C389.536 203.167 389.514 198.233 389.476 192.14C389.462 186.024 389.447 178.757 389.432 170.687C389.432 166.644 389.424 162.409 389.417 158.017C389.417 155.817 389.417 153.581 389.417 151.314C389.417 150.177 389.417 149.033 389.417 147.888C389.417 147.591 389.402 147.331 389.439 146.997C389.484 146.677 389.603 146.365 389.796 146.098C390.168 145.563 390.814 145.228 391.468 145.236C392.07 145.184 392.783 145.421 393.199 145.919C393.415 146.157 393.571 146.454 393.653 146.766C393.742 147.093 393.712 147.405 393.72 147.68C393.72 148.832 393.72 149.977 393.72 151.106C393.72 153.372 393.72 155.609 393.72 157.809C393.72 162.2 393.712 166.436 393.705 170.479C393.69 178.549 393.668 185.816 393.66 191.932C393.63 198.025 393.608 202.959 393.593 206.4C393.586 207.247 393.578 208.005 393.571 208.666C393.608 209.342 393.303 209.907 392.962 210.197C392.233 210.806 391.661 210.643 391.683 210.658L391.661 210.673Z" fill="#263238"/>
<path d="M406.499 145.465H406.283C405.278 145.465 404.463 146.28 404.463 147.285V208.851C404.463 209.856 405.278 210.672 406.283 210.672H406.499C407.504 210.672 408.32 209.856 408.32 208.851V147.285C408.32 146.28 407.504 145.465 406.499 145.465Z" fill="#E0E0E0"/>
<path d="M406.499 210.673C406.477 210.628 407.042 210.747 407.711 210.145C408.506 209.543 408.186 208.087 408.231 206.407C408.216 202.967 408.194 198.033 408.157 191.939C408.142 185.823 408.127 178.556 408.112 170.486C408.112 166.451 408.105 162.208 408.097 157.816C408.097 155.617 408.097 153.387 408.097 151.113C408.097 149.976 408.097 148.84 408.097 147.688C408.097 147.391 408.112 147.123 408.045 146.885C407.986 146.64 407.859 146.41 407.688 146.224C407.339 145.83 406.849 145.652 406.291 145.689C405.779 145.689 405.273 145.949 404.983 146.365C404.835 146.573 404.746 146.818 404.709 147.064C404.679 147.301 404.694 147.613 404.694 147.896C404.694 149.048 404.694 150.192 404.694 151.322C404.694 153.588 404.694 155.825 404.694 158.024C404.694 162.416 404.686 166.659 404.679 170.694C404.664 178.764 404.642 186.039 404.634 192.147C404.605 198.241 404.582 203.175 404.56 206.615C404.56 207.462 404.545 208.22 404.545 208.882C404.545 209.528 404.902 210.011 405.244 210.271C405.593 210.539 405.942 210.613 406.165 210.635C406.395 210.658 406.514 210.658 406.514 210.665C406.514 210.665 406.395 210.687 406.165 210.68C405.935 210.673 405.571 210.613 405.192 210.338C404.82 210.078 404.434 209.573 404.411 208.882C404.411 208.22 404.396 207.462 404.389 206.608C404.374 203.167 404.352 198.233 404.322 192.14C404.307 186.024 404.292 178.757 404.278 170.687C404.278 166.644 404.27 162.409 404.263 158.017C404.263 155.817 404.263 153.581 404.263 151.314C404.263 150.177 404.263 149.033 404.263 147.888C404.263 147.591 404.248 147.331 404.285 146.997C404.33 146.677 404.448 146.365 404.642 146.098C405.013 145.563 405.66 145.228 406.314 145.236C406.916 145.184 407.629 145.421 408.045 145.919C408.261 146.157 408.417 146.454 408.498 146.766C408.587 147.093 408.558 147.405 408.565 147.68C408.565 148.832 408.565 149.977 408.565 151.106C408.565 153.372 408.565 155.609 408.565 157.809C408.565 162.2 408.558 166.436 408.55 170.479C408.535 178.549 408.513 185.816 408.506 191.932C408.476 198.025 408.454 202.959 408.431 206.4C408.424 207.247 408.417 208.005 408.409 208.666C408.446 209.342 408.142 209.907 407.792 210.197C407.064 210.806 406.492 210.643 406.514 210.658L406.499 210.673Z" fill="#263238"/>
<path d="M421.339 145.465H421.123C420.118 145.465 419.303 146.28 419.303 147.285V208.851C419.303 209.856 420.118 210.672 421.123 210.672H421.339C422.344 210.672 423.159 209.856 423.159 208.851V147.285C423.159 146.28 422.344 145.465 421.339 145.465Z" fill="#E0E0E0"/>
<path d="M421.331 210.673C421.309 210.628 421.874 210.747 422.543 210.145C423.338 209.543 423.018 208.087 423.063 206.407C423.048 202.967 423.026 198.033 422.989 191.939C422.974 185.823 422.959 178.556 422.944 170.486C422.944 166.451 422.937 162.208 422.929 157.816C422.929 155.617 422.929 153.387 422.929 151.113C422.929 149.976 422.929 148.84 422.929 147.688C422.929 147.391 422.944 147.123 422.877 146.885C422.818 146.64 422.691 146.41 422.52 146.224C422.171 145.83 421.681 145.652 421.123 145.689C420.611 145.689 420.105 145.949 419.816 146.365C419.667 146.573 419.578 146.818 419.541 147.064C419.511 147.301 419.526 147.613 419.526 147.896C419.526 149.048 419.526 150.192 419.526 151.322C419.526 153.588 419.526 155.825 419.526 158.024C419.526 162.416 419.518 166.659 419.511 170.694C419.496 178.764 419.474 186.039 419.466 192.147C419.437 198.241 419.414 203.175 419.399 206.615C419.399 207.462 419.385 208.22 419.385 208.882C419.385 209.528 419.741 210.011 420.083 210.271C420.432 210.539 420.782 210.613 421.004 210.635C421.227 210.658 421.354 210.658 421.354 210.665C421.354 210.665 421.235 210.687 421.004 210.68C420.774 210.673 420.41 210.613 420.031 210.338C419.659 210.078 419.273 209.573 419.251 208.882C419.251 208.22 419.236 207.462 419.228 206.608C419.214 203.167 419.184 198.233 419.154 192.14C419.139 186.024 419.124 178.757 419.11 170.687C419.11 166.644 419.102 162.409 419.095 158.017C419.095 155.817 419.095 153.581 419.095 151.314C419.095 150.177 419.095 149.033 419.095 147.888C419.095 147.591 419.08 147.331 419.117 146.997C419.162 146.677 419.281 146.365 419.474 146.098C419.845 145.563 420.492 145.228 421.146 145.236C421.748 145.184 422.461 145.421 422.877 145.919C423.093 146.157 423.249 146.454 423.33 146.766C423.42 147.093 423.39 147.405 423.397 147.68C423.397 148.832 423.397 149.977 423.397 151.106C423.397 153.372 423.397 155.609 423.397 157.809C423.397 162.2 423.39 166.436 423.382 170.479C423.368 178.549 423.345 185.816 423.338 191.932C423.308 198.025 423.286 202.959 423.263 206.4C423.256 207.247 423.249 208.005 423.241 208.666C423.278 209.342 422.974 209.907 422.624 210.197C421.896 210.806 421.324 210.643 421.346 210.658L421.331 210.673Z" fill="#263238"/>
<path d="M391.31 176.029H390.604C388.531 176.029 386.852 174.349 386.852 172.276C386.852 170.203 388.531 168.523 390.604 168.523H391.31C393.383 168.523 395.063 170.203 395.063 172.276C395.063 174.349 393.383 176.029 391.31 176.029Z" fill="#FF725E"/>
<path d="M407.117 190.163H406.411C404.338 190.163 402.658 188.484 402.658 186.411C402.658 184.338 404.338 182.658 406.411 182.658H407.117C409.19 182.658 410.869 184.338 410.869 186.411C410.869 188.484 409.19 190.163 407.117 190.163Z" fill="#FF725E"/>
<path d="M421.416 163.517H420.71C418.636 163.517 416.957 161.838 416.957 159.764C416.957 157.691 418.636 156.012 420.71 156.012H421.416C423.489 156.012 425.168 157.691 425.168 159.764C425.168 161.838 423.489 163.517 421.416 163.517Z" fill="#FF725E"/>
<path d="M449.581 25.8789H370.122C366.703 25.8789 363.932 28.6503 363.932 32.0689V111.528C363.932 114.947 366.703 117.718 370.122 117.718H449.581C453 117.718 455.771 114.947 455.771 111.528V32.0689C455.771 28.6503 453 25.8789 449.581 25.8789Z" fill="white"/>
<path d="M449.58 117.726C449.58 117.726 449.892 117.726 450.494 117.629C451.088 117.54 451.987 117.31 452.975 116.656C453.942 116.002 455.012 114.872 455.472 113.193C455.725 112.361 455.71 111.424 455.695 110.429C455.695 109.425 455.695 108.363 455.688 107.233C455.673 98.1973 455.651 85.1411 455.628 69.0085C455.628 60.9384 455.613 52.103 455.606 42.6137C455.606 40.2432 455.606 37.8281 455.606 35.3759C455.599 34.1572 455.621 32.9014 455.584 31.6827C455.517 30.4715 455.049 29.2825 454.291 28.3239C453.525 27.3653 452.455 26.6371 451.252 26.2953C450.055 25.9312 448.747 26.0946 447.447 26.0575C444.846 26.0575 442.215 26.0575 439.548 26.0575C418.206 26.0575 394.754 26.0649 370.128 26.0723C368.634 26.0723 367.155 26.6445 366.07 27.6551C364.971 28.6583 364.279 30.0702 364.153 31.5341C364.101 34.5362 364.138 37.5829 364.123 40.5776C364.123 46.5744 364.123 52.482 364.123 58.293C364.123 69.9076 364.116 81.1061 364.109 91.7769C364.109 97.1124 364.109 102.314 364.101 107.367C364.101 108.63 364.101 109.886 364.101 111.127C364.057 112.361 364.324 113.565 364.941 114.59C365.238 115.11 365.624 115.571 366.063 115.965C366.494 116.366 366.992 116.7 367.519 116.953C368.582 117.503 369.756 117.585 370.945 117.555C380.434 117.562 389.27 117.57 397.34 117.577C413.472 117.607 426.529 117.622 435.565 117.637C440.075 117.652 443.575 117.666 445.953 117.674C447.135 117.681 448.041 117.689 448.658 117.696C449.267 117.696 449.58 117.718 449.58 117.718C449.58 117.718 449.267 117.733 448.658 117.741C448.041 117.741 447.135 117.748 445.953 117.763C443.568 117.77 440.068 117.785 435.565 117.8C426.536 117.815 413.472 117.837 397.34 117.86C389.27 117.86 380.434 117.874 370.945 117.882C369.778 117.919 368.485 117.83 367.378 117.258C366.821 116.998 366.293 116.648 365.84 116.217C365.379 115.801 364.971 115.311 364.658 114.768C363.997 113.698 363.722 112.39 363.767 111.135C363.767 109.886 363.767 108.638 363.767 107.375C363.767 102.321 363.767 97.1198 363.759 91.7844C363.759 81.1135 363.759 69.915 363.744 58.3004C363.744 52.4969 363.744 46.5818 363.744 40.585C363.759 37.5829 363.715 34.5808 363.774 31.5118C363.908 29.9513 364.651 28.4428 365.818 27.3802C366.977 26.3101 368.552 25.6934 370.135 25.6934C394.761 25.6934 418.213 25.7008 439.555 25.7082C442.223 25.7082 444.853 25.7082 447.454 25.7082C448.101 25.7082 448.755 25.7082 449.394 25.7082C450.048 25.7157 450.716 25.7602 451.348 25.9609C452.619 26.325 453.748 27.0904 454.558 28.1084C455.361 29.1265 455.851 30.3823 455.926 31.6604C455.963 32.9237 455.933 34.1498 455.94 35.3759C455.94 37.8281 455.94 40.2432 455.94 42.6137C455.933 52.103 455.926 60.9384 455.918 69.0085C455.896 85.1411 455.874 98.1973 455.859 107.233C455.859 108.363 455.859 109.425 455.851 110.429C455.851 111.424 455.866 112.383 455.606 113.23C455.123 114.932 454.023 116.069 453.042 116.723C452.032 117.369 451.118 117.585 450.523 117.666C450.219 117.718 449.988 117.711 449.832 117.718C449.676 117.718 449.602 117.718 449.602 117.718L449.58 117.726Z" fill="#263238"/>
<path d="M414.155 70.9244H404.532C399.858 70.9244 396.068 67.1346 396.068 62.4605V41.7207H422.619V62.4605C422.619 67.1346 418.829 70.9244 414.155 70.9244Z" fill="#E0E0E0"/>
<path d="M414.154 70.9255C414.154 70.8661 415.053 70.9404 416.614 70.4722C417.379 70.2122 418.301 69.796 419.215 69.0826C420.129 68.3767 421.043 67.3587 421.659 66.0137C422.336 64.6761 422.506 63.0487 422.432 61.243C422.425 59.4373 422.417 57.5052 422.402 55.4394C422.388 51.3078 422.38 46.6931 422.365 41.7218L422.625 41.9819C417.045 41.9819 410.929 41.9968 404.546 41.9968C401.648 41.9968 398.802 41.9968 396.082 41.9968L396.357 41.7218C396.342 47.9118 396.335 53.7377 396.327 58.9988C396.327 60.3067 396.297 61.5997 396.327 62.8183C396.372 64.0222 396.684 65.174 397.189 66.1846C398.2 68.2132 399.961 69.6177 401.752 70.2567C403.55 70.9553 405.348 70.7323 406.887 70.7918C408.417 70.8066 409.733 70.8215 410.825 70.8364C411.865 70.8586 412.69 70.8735 413.299 70.8809C413.56 70.8884 413.768 70.8958 413.939 70.9032C414.08 70.9107 414.154 70.9181 414.154 70.9255C414.154 70.933 414.08 70.9404 413.939 70.9478C413.768 70.9478 413.552 70.9627 413.299 70.9701C412.69 70.985 411.865 70.9998 410.825 71.0147C409.733 71.0296 408.41 71.0444 406.887 71.0593C406.114 71.0593 405.289 71.0667 404.412 71.0741C403.52 71.0741 402.569 70.9107 401.633 70.5837C399.753 69.9372 397.888 68.4956 396.81 66.3703C396.268 65.3151 395.933 64.1039 395.874 62.8332C395.829 61.5774 395.852 60.3141 395.844 58.9914C395.837 53.7303 395.822 47.9044 395.814 41.7144V41.4395H396.089C398.809 41.4395 401.655 41.4395 404.553 41.4395C410.936 41.4395 417.052 41.4543 422.633 41.4543H422.893V41.7144C422.878 46.6857 422.863 51.3003 422.856 55.432C422.848 57.4903 422.833 59.4298 422.826 61.2355C422.885 63.0115 422.685 64.7875 421.957 66.1474C421.295 67.537 420.337 68.5699 419.378 69.2833C418.419 70.0041 417.468 70.3979 416.681 70.6431C415.075 71.0667 414.176 70.933 414.176 70.933L414.154 70.9255Z" fill="#263238"/>
<path d="M396.205 41.9223C400.069 44.7386 404.052 46.5889 408.83 46.4923C413.608 46.3957 418.877 44.8575 422.622 41.8926L396.205 41.9223Z" fill="#FF725E"/>
<path d="M422.617 45.9781C422.617 45.9781 422.699 46.1713 422.81 46.5503C422.929 46.9887 423.078 47.5386 423.263 48.2149C423.65 49.7382 424.177 51.8189 424.824 54.3528C425.143 55.6607 425.5 57.08 425.872 58.5959C426.05 59.3687 426.273 60.1193 426.429 60.9887C426.57 61.8581 426.436 62.7944 426.072 63.649C425.716 64.511 425.077 65.2689 424.274 65.8262C423.464 66.3687 422.461 66.6808 421.458 66.6734C419.533 66.6808 417.542 66.6957 415.498 66.7031C414.48 66.7031 413.469 66.7105 412.474 66.718C411.493 66.718 410.475 66.7625 409.494 66.5396C407.539 66.1458 405.838 65.0534 404.686 63.6415C404.106 62.943 403.653 62.1628 403.341 61.3602C403.036 60.5577 402.784 59.7997 402.524 59.0566C402.011 57.5779 401.528 56.1957 401.089 54.925C400.242 52.4505 399.551 50.4219 399.046 48.9282C398.83 48.2669 398.659 47.7244 398.518 47.286C398.407 46.907 398.355 46.7064 398.37 46.6989C398.385 46.6989 398.474 46.8773 398.622 47.2488C398.786 47.6724 398.994 48.2 399.247 48.8539C399.796 50.3252 400.539 52.339 401.453 54.7913C401.914 56.0545 402.42 57.4293 402.955 58.9006C403.512 60.3793 403.935 62.0142 405.08 63.3146C406.172 64.6299 407.777 65.6479 409.605 66.0046C410.512 66.2052 411.47 66.1681 412.474 66.1606C413.469 66.1606 414.473 66.1532 415.498 66.1458C417.534 66.1458 419.526 66.1309 421.45 66.1235C422.372 66.1235 423.249 65.856 423.977 65.3804C424.698 64.8825 425.277 64.2137 425.604 63.4409C425.939 62.6755 426.065 61.8358 425.946 61.0481C425.82 60.2679 425.589 59.4505 425.426 58.6925C425.077 57.1692 424.742 55.7424 424.437 54.4346C423.865 51.8858 423.397 49.7902 423.048 48.252C422.907 47.5684 422.788 47.011 422.699 46.5652C422.624 46.1788 422.595 45.9707 422.609 45.9707L422.617 45.9781Z" fill="#263238"/>
<path d="M400.055 47.1319C400.055 47.9418 399.401 48.5958 398.591 48.5958C397.781 48.5958 397.127 47.9418 397.127 47.1319C397.127 46.3219 397.781 45.668 398.591 45.668C399.401 45.668 400.055 46.3219 400.055 47.1319Z" fill="#263238"/>
<path d="M422.341 41.9879C422.482 42.6121 421.635 43.1991 421.642 43.8456C421.665 45.0495 420.922 46.1641 419.792 46.5728C419.703 46.6025 419.621 46.6545 419.547 46.714C419.012 47.1376 418.878 47.8732 418.782 48.542C418.618 49.6492 418.455 50.7639 418.291 51.8711C418.187 52.5622 418.083 53.2681 417.741 53.8774C417.399 54.4868 416.753 54.9698 416.054 54.9252C415.051 54.8583 414.427 53.7734 414.271 52.7777C414.078 51.5293 414.323 50.1917 413.468 49.1142C413.075 48.6089 412.406 48.3414 411.804 48.5569C410.281 49.1142 411.209 51.5367 409.768 52.094C409.367 52.2501 408.906 52.1609 408.549 51.9157C407.799 51.3955 407.568 50.5261 407.36 49.6938C407.033 48.386 406.714 47.0855 406.387 45.7777L422.326 41.9805" fill="#FF725E"/>
<path d="M384.418 97.69C388.953 97.69 392.629 94.0137 392.629 89.4788C392.629 84.9439 388.953 81.2676 384.418 81.2676C379.883 81.2676 376.207 84.9439 376.207 89.4788C376.207 94.0137 379.883 97.69 384.418 97.69Z" fill="#FF725E"/>
<path d="M409.848 97.69C414.383 97.69 418.059 94.0137 418.059 89.4788C418.059 84.9439 414.383 81.2676 409.848 81.2676C405.313 81.2676 401.637 84.9439 401.637 89.4788C401.637 94.0137 405.313 97.69 409.848 97.69Z" fill="#FF725E"/>
<path d="M435.285 97.69C439.82 97.69 443.497 94.0137 443.497 89.4788C443.497 84.9439 439.82 81.2676 435.285 81.2676C430.751 81.2676 427.074 84.9439 427.074 89.4788C427.074 94.0137 430.751 97.69 435.285 97.69Z" fill="#FF725E"/>
<g opacity="0.2">
<path d="M435.284 97.692C439.818 97.692 443.495 94.0157 443.495 89.4808C443.495 84.9458 439.818 81.2695 435.284 81.2695C430.749 81.2695 427.072 84.9458 427.072 89.4808C427.072 94.0157 430.749 97.692 435.284 97.692Z" fill="black"/>
</g>
<path d="M392.631 89.4793C392.579 89.4793 392.623 88.7511 392.296 87.4953C391.977 86.2691 391.152 84.4634 389.302 83.0738C388.388 82.3902 387.236 81.818 385.906 81.5876C384.591 81.3647 383.104 81.4093 381.693 81.9518C380.979 82.197 380.295 82.576 379.664 83.0441C379.025 83.5048 378.453 84.0844 377.97 84.7458C376.981 86.0611 376.431 87.7405 376.417 89.4793C376.431 91.2182 376.989 92.905 377.97 94.2128C378.445 94.8816 379.025 95.4538 379.664 95.9145C380.295 96.3901 380.979 96.7617 381.693 97.0069C383.104 97.5494 384.591 97.5939 385.906 97.371C387.236 97.1407 388.388 96.561 389.302 95.8848C391.152 94.4952 391.977 92.6895 392.296 91.4634C392.623 90.2076 392.579 89.4719 392.631 89.4793C392.631 89.4793 392.735 90.215 392.453 91.5005C392.17 92.7638 391.368 94.6438 389.48 96.1152C388.544 96.836 387.355 97.4527 385.973 97.7054C384.605 97.9506 383.052 97.9209 381.566 97.3636C380.823 97.1109 380.102 96.7171 379.433 96.2266C378.765 95.7436 378.155 95.1417 377.65 94.4432C376.61 93.0685 376.023 91.2999 376.008 89.4719C376.023 87.6513 376.61 85.8753 377.65 84.5006C378.155 83.8021 378.765 83.2002 379.433 82.7171C380.095 82.2267 380.816 81.8403 381.566 81.5802C383.052 81.0229 384.598 80.9932 385.973 81.2384C387.355 81.491 388.544 82.1078 389.48 82.8286C391.375 84.2999 392.178 86.18 392.453 87.4432C392.735 88.7362 392.631 89.4645 392.631 89.4645V89.4793Z" fill="#263238"/>
<path d="M418.061 89.4793C418.009 89.4793 418.053 88.7511 417.726 87.4953C417.407 86.2691 416.582 84.4634 414.732 83.0738C413.818 82.3902 412.666 81.818 411.336 81.5876C410.02 81.3647 408.534 81.4093 407.122 81.9518C406.409 82.197 405.725 82.576 405.094 83.0441C404.455 83.5048 403.882 84.0844 403.399 84.7458C402.418 86.0611 401.861 87.7405 401.846 89.4793C401.861 91.2182 402.418 92.905 403.399 94.2128C403.875 94.8816 404.455 95.4538 405.094 95.9145C405.725 96.3901 406.409 96.7617 407.122 97.0069C408.534 97.5494 410.02 97.5939 411.336 97.371C412.666 97.1407 413.818 96.561 414.732 95.8848C416.582 94.4952 417.407 92.6895 417.726 91.4634C418.053 90.2076 418.009 89.4719 418.061 89.4793C418.061 89.4793 418.165 90.215 417.882 91.5005C417.6 92.7638 416.797 94.6438 414.91 96.1152C413.974 96.836 412.785 97.4527 411.402 97.7054C410.035 97.9506 408.482 97.9209 406.996 97.3636C406.253 97.1109 405.532 96.7171 404.863 96.2266C404.194 95.7436 403.585 95.1417 403.08 94.4432C402.039 93.0685 401.452 91.2999 401.438 89.4719C401.452 87.6513 402.039 85.8753 403.08 84.5006C403.585 83.8021 404.194 83.2002 404.863 82.7171C405.525 82.2267 406.245 81.8403 406.996 81.5802C408.482 81.0229 410.028 80.9932 411.402 81.2384C412.785 81.491 413.974 82.1078 414.91 82.8286C416.805 84.2999 417.607 86.18 417.882 87.4432C418.165 88.7362 418.061 89.4645 418.061 89.4645V89.4793Z" fill="#263238"/>
<path d="M443.475 89.4793C443.423 89.4793 443.467 88.7511 443.14 87.4953C442.821 86.2691 441.996 84.4634 440.146 83.0738C439.232 82.3902 438.08 81.818 436.75 81.5876C435.434 81.3647 433.948 81.4093 432.536 81.9518C431.823 82.197 431.139 82.576 430.508 83.0441C429.869 83.5048 429.296 84.0844 428.813 84.7458C427.825 86.0611 427.275 87.7405 427.26 89.4793C427.275 91.2182 427.832 92.905 428.813 94.2128C429.289 94.8816 429.869 95.4538 430.508 95.9145C431.139 96.3901 431.823 96.7617 432.536 97.0069C433.948 97.5494 435.434 97.5939 436.75 97.371C438.08 97.1407 439.232 96.561 440.146 95.8848C441.996 94.4952 442.821 92.6895 443.14 91.4634C443.467 90.2076 443.423 89.4719 443.475 89.4793C443.475 89.4793 443.579 90.215 443.296 91.5005C443.014 92.7638 442.211 94.6438 440.324 96.1152C439.388 96.836 438.199 97.4527 436.817 97.7054C435.449 97.9506 433.896 97.9209 432.41 97.3636C431.667 97.1109 430.946 96.7171 430.277 96.2266C429.608 95.7436 428.999 95.1417 428.494 94.4432C427.453 93.0685 426.866 91.2999 426.852 89.4719C426.866 87.6513 427.453 85.8753 428.494 84.5006C428.999 83.8021 429.608 83.2002 430.277 82.7171C430.939 82.2267 431.659 81.8403 432.41 81.5802C433.896 81.0229 435.442 80.9932 436.817 81.2384C438.199 81.491 439.388 82.1078 440.324 82.8286C442.219 84.2999 443.021 86.18 443.296 87.4432C443.579 88.7362 443.475 89.4645 443.475 89.4645V89.4793Z" fill="#263238"/>
<path d="M231.769 106H121.598C118.048 106 115.17 108.878 115.17 112.428V159.592C115.17 163.142 118.048 166.02 121.598 166.02H231.769C235.319 166.02 238.197 163.142 238.197 159.592V112.428C238.197 108.878 235.319 106 231.769 106Z" fill="white"/>
<path d="M231.769 166.021C231.769 166.021 232.081 166.021 232.675 165.932C233.27 165.85 234.169 165.627 235.165 165.003C236.153 164.386 237.238 163.286 237.795 161.652C238.085 160.842 238.167 159.913 238.13 158.917C238.13 157.921 238.13 156.859 238.122 155.736C238.108 146.745 238.085 133.748 238.063 117.69C238.063 116.687 238.063 115.669 238.063 114.643C238.063 114.131 238.063 113.61 238.063 113.09C238.063 112.57 238.07 112.05 237.996 111.545C237.729 109.508 236.346 107.591 234.385 106.714C233.411 106.239 232.326 106.12 231.212 106.15C230.097 106.15 228.967 106.15 227.823 106.15C225.542 106.15 223.223 106.15 220.86 106.15C211.415 106.15 201.324 106.165 190.705 106.165C169.468 106.165 146.12 106.172 121.612 106.179C120.126 106.179 118.655 106.729 117.533 107.695C116.403 108.654 115.653 110.029 115.445 111.478C115.333 112.198 115.378 112.956 115.37 113.707C115.37 114.457 115.37 115.215 115.37 115.966C115.37 117.467 115.37 118.968 115.37 120.462C115.37 126.429 115.37 132.314 115.37 138.088C115.37 143.869 115.37 149.546 115.37 155.105C115.37 156.494 115.37 157.877 115.37 159.251C115.318 160.604 115.69 161.934 116.418 163.041C117.161 164.133 118.231 165.003 119.465 165.434C120.691 165.939 122.028 165.805 123.359 165.82C144.596 165.835 163.724 165.85 179.789 165.865C195.848 165.887 208.844 165.909 217.836 165.924C222.324 165.939 225.809 165.954 228.18 165.961C229.354 165.969 230.253 165.976 230.87 165.984C231.479 165.984 231.784 166.006 231.784 166.006C231.784 166.006 231.472 166.021 230.87 166.028C230.253 166.028 229.354 166.036 228.18 166.051C225.809 166.058 222.324 166.073 217.836 166.088C208.844 166.103 195.848 166.125 179.789 166.147C163.724 166.162 144.596 166.17 123.359 166.192C122.69 166.192 122.036 166.207 121.352 166.177C120.669 166.162 119.985 166.021 119.338 165.783C118.031 165.322 116.901 164.401 116.113 163.249C115.341 162.09 114.947 160.656 114.999 159.259C114.999 157.884 114.999 156.502 114.999 155.112C114.999 149.554 114.999 143.877 114.999 138.095C114.999 132.314 114.999 126.436 114.999 120.469C114.999 118.976 114.999 117.482 114.999 115.973C114.999 115.223 114.999 114.472 114.999 113.714C115.006 112.964 114.962 112.206 115.08 111.426C115.303 109.88 116.098 108.424 117.295 107.405C118.484 106.38 120.044 105.793 121.627 105.793C146.134 105.793 169.483 105.8 190.72 105.808C201.339 105.808 211.43 105.823 220.875 105.823C223.238 105.823 225.557 105.823 227.838 105.823C228.975 105.823 230.104 105.823 231.226 105.823C232.341 105.8 233.515 105.927 234.526 106.425C236.584 107.346 238.026 109.352 238.293 111.485C238.375 112.02 238.36 112.555 238.36 113.068C238.36 113.588 238.36 114.101 238.36 114.621C238.36 115.646 238.36 116.664 238.36 117.668C238.338 133.726 238.316 146.723 238.301 155.714C238.301 156.836 238.301 157.899 238.293 158.895C238.323 159.883 238.234 160.849 237.937 161.666C237.357 163.323 236.242 164.431 235.239 165.047C234.221 165.672 233.315 165.88 232.713 165.954C232.415 166.006 232.178 165.999 232.029 166.006C231.873 166.006 231.799 166.006 231.799 166.006L231.769 166.021Z" fill="#263238"/>
<path d="M145.025 134.068V141.99L163.677 149.986L163.833 142.406L153.415 137.762L163.833 133.311V125.969L145.025 134.068Z" fill="#EBEBEB"/>
<path d="M208.336 142.517V134.603L189.521 126.607L189.365 134.18L199.873 138.831L189.365 143.283V150.624L208.336 142.517Z" fill="#EBEBEB"/>
<path d="M177.766 119.43C177.766 119.63 166.813 156.585 167.118 156.525C167.43 156.458 175.277 156.525 175.277 156.525L186.081 119.437H177.766V119.43Z" fill="#EBEBEB"/>
<path d="M127.966 113.961C127.966 115.306 126.807 116.398 125.373 116.398C123.939 116.398 122.779 115.306 122.779 113.961C122.779 112.616 123.939 111.523 125.373 111.523C126.807 111.523 127.966 112.616 127.966 113.961Z" fill="#E0E0E0"/>
<path d="M135.083 113.961C135.083 115.306 133.924 116.398 132.49 116.398C131.056 116.398 129.896 115.306 129.896 113.961C129.896 112.616 131.056 111.523 132.49 111.523C133.924 111.523 135.083 112.616 135.083 113.961Z" fill="#E0E0E0"/>
<path d="M142.202 113.961C142.202 115.306 141.043 116.398 139.609 116.398C138.175 116.398 137.016 115.306 137.016 113.961C137.016 112.616 138.175 111.523 139.609 111.523C141.043 111.523 142.202 112.616 142.202 113.961Z" fill="#E0E0E0"/>
</g>
<defs>
<clipPath id="clip0_1160_22696">
<rect width="493" height="296.287" fill="white" transform="translate(0 0.0351562)"/>
</clipPath>
</defs>
</svg>
